<svg xmlns="http://www.w3.org/2000/svg" viewBox="0 0 1600 1100" font-family="Inter, system-ui, -apple-system, sans-serif">
  <defs>
    <marker id="arrow-purple" markerWidth="10" markerHeight="10" refX="8" refY="5" orient="auto">
      <path d="M0,0 L10,5 L0,10 Z" fill="#6b3fa0"/>
    </marker>
    <marker id="arrow-pink" markerWidth="10" markerHeight="10" refX="8" refY="5" orient="auto">
      <path d="M0,0 L10,5 L0,10 Z" fill="#a83279"/>
    </marker>
    <marker id="arrow-blue" markerWidth="10" markerHeight="10" refX="8" refY="5" orient="auto">
      <path d="M0,0 L10,5 L0,10 Z" fill="#1f6fd1"/>
    </marker>
    <marker id="arrow-orange" markerWidth="10" markerHeight="10" refX="8" refY="5" orient="auto">
      <path d="M0,0 L10,5 L0,10 Z" fill="#a85a1f"/>
    </marker>
    <marker id="arrow-green" markerWidth="10" markerHeight="10" refX="8" refY="5" orient="auto">
      <path d="M0,0 L10,5 L0,10 Z" fill="#2d6a3e"/>
    </marker>
    <marker id="arrow-gray" markerWidth="10" markerHeight="10" refX="8" refY="5" orient="auto">
      <path d="M0,0 L10,5 L0,10 Z" fill="#888"/>
    </marker>
  </defs>

  <rect width="1600" height="1100" fill="#ffffff"/>

  <!-- Header -->
  <text x="80" y="90" font-size="44" font-weight="700" fill="#1a1a1a">Sitemap</text>
  <text x="80" y="122" font-size="18" fill="#888">Album Cover Grid Maker  ·  @Vic50595</text>

  <!-- ========= Row 1: Homepage + About Me ========= -->
  <rect x="650" y="180" width="300" height="100" rx="2" fill="#f3f8f1" stroke="#2d6a3e" stroke-width="2"/>
  <line x1="650" y1="235" x2="950" y2="235" stroke="#2d6a3e" stroke-width="2"/>
  <g transform="translate(790,195)">
    <path d="M10,15 L20,5 L30,15 L30,28 L24,28 L24,20 L16,20 L16,28 L10,28 Z" fill="#2d6a3e"/>
  </g>
  <text x="800" y="262" text-anchor="middle" font-size="16" font-weight="600" fill="#1a1a1a">Homepage  /</text>

  <line x1="950" y1="230" x2="1100" y2="230" stroke="#888" stroke-width="1.5" stroke-dasharray="6 4"/>
  <rect x="1100" y="190" width="190" height="80" rx="2" fill="#f4f7fc" stroke="#1f6fd1" stroke-width="2"/>
  <line x1="1100" y1="228" x2="1290" y2="228" stroke="#1f6fd1" stroke-width="2"/>
  <g transform="translate(1180,200)">
    <circle cx="15" cy="10" r="5" fill="#1f6fd1"/>
    <path d="M5,24 Q15,16 25,24 L25,28 L5,28 Z" fill="#1f6fd1"/>
  </g>
  <text x="1195" y="257" text-anchor="middle" font-size="14" font-weight="600" fill="#1a1a1a">About Me  /about</text>

  <!-- Drop from Homepage to Trending Banner -->
  <line x1="800" y1="280" x2="800" y2="320" stroke="#888" stroke-width="1.5" marker-end="url(#arrow-gray)"/>

  <!-- ========= Row 2: Trending Banner (full-width feature) ========= -->
  <rect x="600" y="330" width="400" height="90" rx="2" fill="#f6f2fa" stroke="#6b3fa0" stroke-width="2"/>
  <line x1="600" y1="372" x2="1000" y2="372" stroke="#6b3fa0" stroke-width="2"/>
  <g transform="translate(740,345)">
    <path d="M2,16 L8,8 L14,12 L22,4 L22,18 L2,18 Z" fill="#6b3fa0"/>
  </g>
  <text x="800" y="400" text-anchor="middle" font-size="15" font-weight="600" fill="#1a1a1a">Trending Banner  (collapsible)</text>

  <!-- Drop from Trending to spine -->
  <line x1="800" y1="420" x2="800" y2="470" stroke="#888" stroke-width="1.5"/>
  <!-- spine -->
  <line x1="230" y1="470" x2="1370" y2="470" stroke="#888" stroke-width="1.5"/>
  <line x1="230"  y1="470" x2="230"  y2="525" stroke="#888" stroke-width="1.5" marker-end="url(#arrow-gray)"/>
  <line x1="610"  y1="470" x2="610"  y2="525" stroke="#888" stroke-width="1.5" marker-end="url(#arrow-gray)"/>
  <line x1="990"  y1="470" x2="990"  y2="525" stroke="#888" stroke-width="1.5" marker-end="url(#arrow-gray)"/>
  <line x1="1370" y1="470" x2="1370" y2="525" stroke="#888" stroke-width="1.5" marker-end="url(#arrow-gray)"/>

  <!-- ========= Branch 1: Hero (pink) ========= -->
  <rect x="100" y="540" width="260" height="80" rx="2" fill="#fbf2f6" stroke="#a83279" stroke-width="2"/>
  <line x1="100" y1="578" x2="360" y2="578" stroke="#a83279" stroke-width="2"/>
  <g transform="translate(125,553)">
    <path d="M2,4 L22,4 L22,18 L12,14 L2,18 Z" fill="#a83279"/>
  </g>
  <text x="180" y="603" font-size="14" font-weight="600" fill="#1a1a1a">#section1 — Hero</text>

  <line x1="230" y1="620" x2="230" y2="665" stroke="#a83279" stroke-width="1.5"/>
  <line x1="145" y1="665" x2="315" y2="665" stroke="#a83279" stroke-width="1.5"/>
  <line x1="145" y1="665" x2="145" y2="700" stroke="#a83279" stroke-width="1.5" marker-end="url(#arrow-pink)"/>
  <line x1="230" y1="665" x2="230" y2="700" stroke="#a83279" stroke-width="1.5" marker-end="url(#arrow-pink)"/>
  <line x1="315" y1="665" x2="315" y2="700" stroke="#a83279" stroke-width="1.5" marker-end="url(#arrow-pink)"/>

  <rect x="95"  y="710" width="100" height="36" rx="18" fill="#ffffff" stroke="#a83279" stroke-width="1.5"/>
  <text x="145" y="733" text-anchor="middle" font-size="12" fill="#1a1a1a">Title</text>
  <rect x="180" y="710" width="100" height="36" rx="18" fill="#ffffff" stroke="#a83279" stroke-width="1.5"/>
  <text x="230" y="733" text-anchor="middle" font-size="12" fill="#1a1a1a">Scroll CTA ↓</text>
  <rect x="265" y="710" width="100" height="36" rx="18" fill="#ffffff" stroke="#a83279" stroke-width="1.5"/>
  <text x="315" y="733" text-anchor="middle" font-size="12" fill="#1a1a1a">Credits</text>

  <!-- ========= Branch 2: Grid Picker (blue) ========= -->
  <rect x="480" y="540" width="260" height="80" rx="2" fill="#f4f7fc" stroke="#1f6fd1" stroke-width="2"/>
  <line x1="480" y1="578" x2="740" y2="578" stroke="#1f6fd1" stroke-width="2"/>
  <g transform="translate(505,553)">
    <rect x="2"  y="2"  width="6" height="6" fill="#1f6fd1"/>
    <rect x="10" y="2"  width="6" height="6" fill="#1f6fd1"/>
    <rect x="18" y="2"  width="6" height="6" fill="#1f6fd1"/>
    <rect x="2"  y="10" width="6" height="6" fill="#1f6fd1"/>
    <rect x="10" y="10" width="6" height="6" fill="#1f6fd1"/>
    <rect x="18" y="10" width="6" height="6" fill="#1f6fd1"/>
  </g>
  <text x="555" y="603" font-size="14" font-weight="600" fill="#1a1a1a">#section2 — Grid Picker</text>

  <line x1="610" y1="620" x2="610" y2="665" stroke="#1f6fd1" stroke-width="1.5"/>
  <line x1="525" y1="665" x2="695" y2="665" stroke="#1f6fd1" stroke-width="1.5"/>
  <line x1="525" y1="665" x2="525" y2="700" stroke="#1f6fd1" stroke-width="1.5" marker-end="url(#arrow-blue)"/>
  <line x1="610" y1="665" x2="610" y2="700" stroke="#1f6fd1" stroke-width="1.5" marker-end="url(#arrow-blue)"/>
  <line x1="695" y1="665" x2="695" y2="700" stroke="#1f6fd1" stroke-width="1.5" marker-end="url(#arrow-blue)"/>

  <rect x="475" y="710" width="100" height="36" rx="18" fill="#ffffff" stroke="#1f6fd1" stroke-width="1.5"/>
  <text x="525" y="733" text-anchor="middle" font-size="12" fill="#1a1a1a">4 steps</text>
  <rect x="560" y="710" width="100" height="36" rx="18" fill="#ffffff" stroke="#1f6fd1" stroke-width="1.5"/>
  <text x="610" y="733" text-anchor="middle" font-size="12" fill="#1a1a1a">8 presets</text>
  <rect x="645" y="710" width="100" height="36" rx="18" fill="#ffffff" stroke="#1f6fd1" stroke-width="1.5"/>
  <text x="695" y="733" text-anchor="middle" font-size="12" fill="#1a1a1a">Click → §3</text>

  <!-- ========= Branch 3: Search + Grid (orange) ========= -->
  <rect x="860" y="540" width="260" height="80" rx="2" fill="#fbf4ec" stroke="#a85a1f" stroke-width="2"/>
  <line x1="860" y1="578" x2="1120" y2="578" stroke="#a85a1f" stroke-width="2"/>
  <g transform="translate(885,553)">
    <circle cx="9" cy="9" r="6" fill="none" stroke="#a85a1f" stroke-width="2"/>
    <line x1="13" y1="13" x2="20" y2="20" stroke="#a85a1f" stroke-width="2"/>
  </g>
  <text x="935" y="603" font-size="14" font-weight="600" fill="#1a1a1a">#section3 — Search + Grid</text>

  <line x1="990" y1="620" x2="990" y2="665" stroke="#a85a1f" stroke-width="1.5"/>
  <line x1="905" y1="665" x2="1075" y2="665" stroke="#a85a1f" stroke-width="1.5"/>
  <line x1="905"  y1="665" x2="905"  y2="700" stroke="#a85a1f" stroke-width="1.5" marker-end="url(#arrow-orange)"/>
  <line x1="990"  y1="665" x2="990"  y2="700" stroke="#a85a1f" stroke-width="1.5" marker-end="url(#arrow-orange)"/>
  <line x1="1075" y1="665" x2="1075" y2="700" stroke="#a85a1f" stroke-width="1.5" marker-end="url(#arrow-orange)"/>

  <rect x="855"  y="710" width="100" height="36" rx="18" fill="#ffffff" stroke="#a85a1f" stroke-width="1.5"/>
  <text x="905"  y="733" text-anchor="middle" font-size="12" fill="#1a1a1a">Search</text>
  <rect x="940"  y="710" width="100" height="36" rx="18" fill="#ffffff" stroke="#a85a1f" stroke-width="1.5"/>
  <text x="990"  y="733" text-anchor="middle" font-size="12" fill="#1a1a1a">Drag · swap</text>
  <rect x="1025" y="710" width="100" height="36" rx="18" fill="#ffffff" stroke="#a85a1f" stroke-width="1.5"/>
  <text x="1075" y="733" text-anchor="middle" font-size="12" fill="#1a1a1a">Progress</text>

  <line x1="990" y1="746" x2="990" y2="785" stroke="#a85a1f" stroke-width="1.5" marker-end="url(#arrow-orange)"/>
  <rect x="915" y="795" width="150" height="36" rx="18" fill="#ffffff" stroke="#a85a1f" stroke-width="1.5"/>
  <text x="990" y="818" text-anchor="middle" font-size="12" fill="#1a1a1a">Download → §4</text>

  <!-- ========= Branch 4: Share (green) ========= -->
  <rect x="1240" y="540" width="260" height="80" rx="2" fill="#f3f8f1" stroke="#2d6a3e" stroke-width="2"/>
  <line x1="1240" y1="578" x2="1500" y2="578" stroke="#2d6a3e" stroke-width="2"/>
  <g transform="translate(1265,553)">
    <circle cx="6"  cy="6"  r="3" fill="#2d6a3e"/>
    <circle cx="20" cy="2"  r="3" fill="#2d6a3e"/>
    <circle cx="20" cy="14" r="3" fill="#2d6a3e"/>
    <line x1="6" y1="6" x2="20" y2="2"  stroke="#2d6a3e" stroke-width="1.5"/>
    <line x1="6" y1="6" x2="20" y2="14" stroke="#2d6a3e" stroke-width="1.5"/>
  </g>
  <text x="1315" y="603" font-size="14" font-weight="600" fill="#1a1a1a">#section4 — Share</text>

  <line x1="1370" y1="620" x2="1370" y2="665" stroke="#2d6a3e" stroke-width="1.5"/>
  <line x1="1285" y1="665" x2="1455" y2="665" stroke="#2d6a3e" stroke-width="1.5"/>
  <line x1="1285" y1="665" x2="1285" y2="700" stroke="#2d6a3e" stroke-width="1.5" marker-end="url(#arrow-green)"/>
  <line x1="1370" y1="665" x2="1370" y2="700" stroke="#2d6a3e" stroke-width="1.5" marker-end="url(#arrow-green)"/>
  <line x1="1455" y1="665" x2="1455" y2="700" stroke="#2d6a3e" stroke-width="1.5" marker-end="url(#arrow-green)"/>

  <rect x="1235" y="710" width="100" height="36" rx="18" fill="#ffffff" stroke="#2d6a3e" stroke-width="1.5"/>
  <text x="1285" y="733" text-anchor="middle" font-size="12" fill="#1a1a1a">Preview</text>
  <rect x="1320" y="710" width="100" height="36" rx="18" fill="#ffffff" stroke="#2d6a3e" stroke-width="1.5"/>
  <text x="1370" y="733" text-anchor="middle" font-size="12" fill="#1a1a1a">Socials</text>
  <rect x="1405" y="710" width="100" height="36" rx="18" fill="#ffffff" stroke="#2d6a3e" stroke-width="1.5"/>
  <text x="1455" y="733" text-anchor="middle" font-size="12" fill="#1a1a1a">Footer</text>

</svg>
