<?xml version="1.0" encoding="UTF-8"?>
<svg id="Layer_1" xmlns="http://www.w3.org/2000/svg" version="1.1" viewBox="0 0 4032 2016">
  <!-- Generator: Adobe Illustrator 30.2.0, SVG Export Plug-In . SVG Version: 2.1.1 Build 45)  -->
  <defs>
    <style>
      .st0 {
        fill: #71506e;
      }

      .st1 {
        fill: #500;
      }
    </style>
  </defs>
  <rect class="st0" x="217.35" y="202.48" width="1715.48" height="1715.48"/>
  <g id="V4L9id.tif">
    <g>
      <path class="st1" d="M1402.94,215.87h101.73c-1.8,1.07-3.57,2.19-5.32,3.35-15.26,10.11-28.51,22.49-40.77,35.97-13.59,14.94-25.77,31.03-38.32,46.8-5.56,6.99-11.13,14-17.73,20.07-2.96,2.72-6.06,5.36-9.4,7.6-8.25,5.54-17.35,7.27-27.28,6.01-14.82-1.87-28.54-7.17-42.24-12.61-17.07-6.76-32.53-16.19-46.87-27.57-8.59-6.81-17.51-13.17-27.41-18.11-12.63-6.29-25.91-9.52-40.03-10.03-19.06-.69-37.38,2.88-55.47,8.34-21.61,6.52-42.59,14.7-63.32,23.54-44.99,19.17-88.35,41.52-129.96,67.13-29.77,18.33-58.31,38.42-85.69,60.16-31.27,24.81-60.48,51.81-87.61,80.98-29.5,31.71-56.13,65.69-79.77,101.96-6.92,10.62-13.45,21.43-19.14,32.76-7.92,15.8-13.73,32.32-16.21,49.74-1.56,11-3.47,22.19-1.16,33.42,1.74,32.11,13.91,60.73,29.96,88.02,9.64,16.39,20.85,31.75,31.99,47.15,10.12,14,20.33,27.94,29.03,42.89,4.34,7.48,8.16,15.17,10.79,23.45,1.06,3.35,1.62,6.73,1.99,10.12.87,8.09-2.61,13.87-10.04,17.27-3.98,1.82-8.17,2.91-12.56,3.06-12.15.45-24.28.42-36.4-1.03-7.17-.86-14.37-1.48-21.58-1.98-22.52-1.56-45.07-3.06-67.63-1.78-22.23,1.26-44.29,4.11-66.04,8.94-35.13,7.79-68.78,19.84-101.39,34.82-48.54,22.3-93.4,50.53-135.71,82.91-28.91,22.13-56.33,45.92-82.5,71.2-5.81,5.61-11.56,11.29-17.23,17.04v-24.1c.89-.84,1.79-1.68,2.68-2.52,18.59-17.3,37.43-34.29,57.06-50.4,41.56-34.11,85.37-65.01,132.54-91.08,32.4-17.9,65.98-33.2,100.92-45.62,41.05-14.6,83.47-22.79,126.68-27.56,10.9-1.2,21.8-2.69,32.48-5.26,5.9-1.41,11.73-3.13,17.09-6.1,10.41-5.78,14.62-14.44,12.37-25.92-.94-4.79-2.41-9.42-4.21-13.99-4.67-11.82-11.24-22.66-17.48-33.66-6.39-11.25-12.84-22.48-18.37-34.2-10.94-23.19-17.08-47.48-16.85-73.21.05-5.47.21-10.92.28-16.38.08-6.63,1.29-13.15,2.55-19.61,4.67-23.91,13.83-46.12,26.26-67.06,8.52-14.36,17.87-28.19,27.47-41.85,21.87-31.16,45.84-60.66,71.86-88.47,23.45-25.06,48.13-48.88,74.27-71.23,25.45-21.78,51.9-42.25,79.54-61.19,65.89-45.2,135.81-83.17,209.35-114.62,23.63-10.11,47.69-19.12,72.49-26.1,15.06-4.24,30.31-7.27,45.99-8.06,18.36-.93,36.36,1.22,54.09,5.97,10.32,2.76,20.65,5.52,31.27,7.07,14.7,2.15,28.82.64,42.19-6.16,5.9-3,11.45-6.48,16.77-10.29Z"/>
      <path class="st1" d="M1744.87,215.87c-2.61,8.42-4.46,17.1-5.52,26.06-.78,6.58-1.15,13.14-1.55,19.73-.36,6.02-.73,12.06-1.67,18-1.59,10.04-7.4,16.53-17.51,19.12-4.23,1.09-8.49,1.67-12.85,1.74-23.2.37-45.31-4.66-66.79-13.04-23.78-9.27-42.81-24.76-59.06-44-7.06-8.36-13.83-16.99-21.78-24.58-1.09-1.03-2.17-2.05-3.3-3.03h113.1c1.15.64,2.34,1.21,3.57,1.73,5.66,2.4,11.2,2.36,16.76-.19,1.02-.47,2.01-.98,2.96-1.54h53.63Z"/>
      <path class="st1" d="M1915.22,467.16v32.12c-9.32,2.46-18.79,4.04-28.42,4.59-13.59.76-27.22.78-40.79-.3-10.93-.87-21.84-2.25-32.68-3.9-14.84-2.24-29.57-5.21-44.43-7.4-14.32-2.11-28.77-3.23-43.26-2.04-19.02,1.57-36.76,7.23-53.08,17.21-16.22,9.92-29.69,22.89-41.78,37.3-19.34,23.06-35.31,48.34-48.99,75.04-8.51,16.63-16.41,33.57-24.68,50.34-4.7,9.54-9.27,19.16-15.05,28.13-2.81,4.36-5.7,8.64-9.55,12.21-7.23,6.71-14.55,7.43-22.8,1.97-7.04-4.67-12.67-10.86-18.27-17.1-8.09-9-16.06-18.12-24.52-26.77-23.4-23.91-50.65-42.73-80.17-58.38-11.27-5.98-23.29-10.23-35.86-12.55-12.88-2.37-25.75-2.66-38.7.54-12.6,3.12-22.82,9.6-31.08,19.28-5.82,6.82-10.67,14.3-14.18,22.58-2.7,6.35-5.17,12.77-7.25,19.36-1.73,5.46-3.93,10.8-6.35,16.01-5.45,11.73-14.63,18.12-27.85,18.57-9.9.34-19.62-.72-29.28-2.83-18.93-4.12-37.44-9.72-55.85-15.69-27.22-8.83-53.79-19.38-80.44-29.7-9.96-3.86-20.04-7.41-30.56-9.58-15.71-3.24-31.02-2.52-45.95,3.63-20.73,8.53-38.54,20.86-51.79,39.14-4.56,6.29-9.24,12.51-13.96,18.69-10.06,13.17-22.66,22.87-38.75,27.74-4.98,1.5-9.94,3.04-14.96,4.42-7.52,2.07-15.12,3.81-22.44,6.59-4.12,1.57-7.83,3.66-11.08,6.6-4.95,4.47-7.57,10-8.04,16.62-.71,9.94,1.26,19.4,4.71,28.67,5.24,14.08,12.45,27.15,20.45,39.83,11.52,18.27,24.12,35.81,36.69,53.36,19.13,26.69,37.83,53.65,54.57,81.89,21.61,36.47,39.9,74.49,53.51,114.64,5.99,17.68,10.86,35.71,13.91,54.14,2.11,12.77,3.07,25.69,1.95,38.63-.79,9.17-2.41,18.21-6.68,26.56-6.05,11.83-15.82,17.93-29.04,18.75-8.74.55-17.28-.69-25.77-2.75-17.71-4.31-34.92-10.18-52.15-16.03-19.14-6.5-38.39-12.64-58.23-16.76-18.44-3.83-37.03-6.53-55.93-5.6-24.29,1.18-47.5,6.36-68.48,19.25-7.9,4.85-15.36,10.29-21.98,16.77-5.77,5.64-11.36,11.47-16.89,17.34-10.69,11.35-21.84,22.2-34.32,31.63-6.7,5.06-13.89,9.29-21.61,12.67-6.44,2.81-13.21,4.46-20.14,4.85-8.22.45-16.03-1.66-23.29-5.66-7.19-3.97-13.13-9.35-18.31-15.63-8.15-9.88-13.84-21.18-19.03-32.73-4.36-9.7-8.37-19.55-12.63-29.3-3.46-7.92-7.63-15.48-12.88-22.39-7.09-9.32-16.35-15.51-27.96-17.49-8.29-1.41-16.71-1.08-25.02.71-12.86,2.76-24.68,8.03-35.91,14.72-8.7,5.19-16.82,11.2-24.52,17.74-27.95,23.75-51.04,51.59-70.07,82.77-17.97,29.44-30.95,60.94-38.82,94.47-2.23,9.49-3.67,19.12-4.9,28.82-2.33,18.36-2.01,36.73-.79,55.06,1.12,16.87,3.62,33.65,6.8,50.29,6.25,32.69,14.23,64.98,23.88,96.87,13.5,44.58,30.08,87.99,49.91,130.19,11.5,24.46,24,48.42,36.17,72.55,6.21,12.32,12.5,24.61,17.74,37.38,3.28,7.98,6.11,16.08,8.12,24.5,1.09,4.55,1.31,9.09,1.22,13.67-.14,8.19-3.96,14.27-11.2,18.11-2.05,1.09-4.16,2.05-6.28,3.01-1.56.71-3.14,1.41-4.69,2.14-3.89,1.85-7.77,3.72-11.62,5.66-.28.14-.55.28-.83.41-.98.49-2.08,1.07-2.01,2.48h-33c.63-.97,1.28-1.93,1.91-2.9,1.72-2.6,3.44-5.19,5.15-7.79,6.37-9.64,12.74-19.28,19.1-28.92.95-1.44,1.82-2.93,2.68-4.43,5.64-9.92,7.1-20.49,5.19-31.64-2.19-12.82-6.64-24.95-11.77-36.82-5.23-12.13-10.76-24.15-16.48-36.06-16.09-33.41-32.14-66.84-46.36-101.08-11.58-27.85-22.86-55.81-34.02-83.83-8.39-21.07-16.44-42.29-24.52-63.49-5.85-15.32-10.53-31.01-13.22-47.19-2.65-15.92-2.88-31.9-1.21-48.05,2.52-24.16,8.59-47.43,16.8-70.15,13.67-37.84,33.13-72.64,57.46-104.76,13.42-17.71,27.98-34.45,43.96-49.91,21.59-20.91,44.69-40.01,70.73-55.35,15.52-9.14,31.88-16.28,49.6-19.97,11.08-2.31,22.18-3.41,33.55-1.19,13.83,2.69,24.57,9.61,32.47,21.08,6.25,9.08,10.35,19.2,14.37,29.37,4.23,10.7,8.7,21.31,15.59,30.67,2.21,3,4.56,5.99,7.29,8.52,9.49,8.79,20.52,12.34,33.52,9.48,7.75-1.71,14.9-4.68,21.58-8.73,7.16-4.33,14.13-8.98,21.06-13.67,14.85-10.04,30.13-19.31,46.94-25.86,14.31-5.58,29.1-9.21,44.37-11.28,16.75-2.26,33.52-2.12,50.24-.9,15.82,1.16,31.52,3.85,47.06,7.21,18.63,4.03,37.23,8.14,55.9,11.98,9.63,1.99,19.39,3.21,29.29,2.68,6.71-.35,13.14-1.78,19.2-4.77,6.43-3.16,11.34-7.89,14.91-13.99,4.73-8.1,7.18-16.9,7.89-26.17,1.47-19.38-.83-38.34-6.11-57.06-5.87-20.78-13.76-40.78-22.88-60.33-16.71-35.82-37.43-69.33-60.6-101.34-17.55-24.25-35.65-48.11-53.47-72.18-11.14-15.05-21.91-30.35-31.14-46.65-7.67-13.57-14.14-27.63-17.67-42.88-2.48-10.73-3.72-21.47-1.09-32.38,1.22-5.07,2.93-9.92,5.63-14.38,4.64-7.66,11.08-13.25,19.77-15.91,4.13-1.27,8.37-2.28,12.63-2.98,5.13-.84,10.32-1.36,15.5-1.8,20.45-1.72,38.68-9.12,55.12-21.12,10.04-7.32,19.46-15.38,28.94-23.38,7.05-5.96,14.01-12.05,21.32-17.67,14.01-10.76,28.97-19.96,45.51-26.5,10.13-4.02,20.58-5.7,31.43-4.66,9.02.86,17.51,3.75,25.67,7.5,6.04,2.77,11.89,5.91,17.85,8.86,7.5,3.72,14.95,7.57,22.56,11.07,15.33,7.06,31.43,11.63,48.24,13.39,15.49,1.62,30.54-.64,45.16-6.07,18.23-6.79,35.27-15.87,51.82-25.95,10.6-6.46,21.15-13.01,32.34-18.45,13.95-6.79,28.66-10.6,44.18-11.34,6.62-.32,13.19-.65,19.89-.26,19.34,1.13,37.55,6.21,55.11,13.98,14.3,6.33,27.61,14.47,41.04,22.39,19.65,11.61,38.63,24.25,57.81,36.58,4.61,2.96,9.38,5.7,14.23,8.25,3.56,1.88,7.43,3.09,11.37,4.12,7.9,2.07,14.91.08,21.46-4.07,5.65-3.58,10.3-8.3,14.51-13.48,8-9.86,14.96-20.43,21.87-31.06,12.57-19.29,25.01-38.66,37.88-57.76,11.44-16.98,24.14-32.99,39.25-47.01,14.88-13.81,32.01-23.43,51.72-28.65,7.87-2.09,15.89-3.35,23.9-3.98,13.84-1.1,27.71-.96,41.59.47,20.18,2.07,39.87,6.61,59.7,10.44,17.94,3.46,36.02,5.45,54.34,4.22,12.85-.87,25.04-4.24,36.54-9.95,1.74-.86,3.41-1.78,5.02-2.74Z"/>
      <path class="st1" d="M1915.22,672.49v23.97c-10.27-6.91-20.21-14.28-30.13-21.68-12.03-8.98-24.04-17.98-36.74-26-11.02-6.96-22.38-13.27-35.28-16.15-12.14-2.71-24.11-2.34-35.58,3.11-4.46,2.11-8.62,4.63-12.6,7.56-7.3,5.38-13.03,12.21-18.39,19.37-11.31,15.11-19.29,31.97-25.89,49.52-14.32,38.04-23.2,77.43-29.23,117.49-1.95,13.03-3.73,26.1-5.05,39.2-1.55,15.39-3.35,30.75-5.38,46.09-1.95,14.8-4.66,29.44-8.15,43.94-5.19,21.58-13.01,42.24-22.64,62.22-14.98,31.08-30.86,61.71-47.72,91.84-17.33,30.95-37.06,60.28-59.72,87.66-11.39,13.76-22.49,27.75-33.07,42.14-14.87,20.18-28.44,41.23-42.08,62.23-2.5,3.85-4.84,7.85-6.87,11.97-6.09,12.3-7.7,25.1-4.21,38.5,1.9,7.33,5.09,14.02,9.14,20.36,5.74,8.98,12.28,17.4,18.88,25.77,5.89,7.46,11.83,14.88,17.45,22.54,5.83,7.96,10,16.8,12.78,26.25,1.64,5.59,2.15,11.25.55,16.55-2.59,4.38-6.28,6.67-10.68,7.42-4.82.82-9.81,1.65-14.64,1.34-10.08-.66-20.2-1.6-30.16-3.23-21.67-3.54-43.14-8.17-64.46-13.38-36.57-8.95-72.04-21.15-106.68-35.79-12.52-5.29-24.61-11.47-36.78-17.47-5.96-2.94-11.99-5.67-18.37-7.67-3.67-1.14-7.33-1.49-11.12-1.47-4.53.02-7.67,2.3-9.94,5.91-1.38,2.21-2.28,4.65-2.48,7.29-.42,5.75-.44,11.44.88,17.13,2.79,11.92,8.22,22.66,14.73,32.9,6.21,9.76,14.91,16.77,25.61,21.18,5.32,2.2,10.79,4.21,16.35,5.65,12.02,3.1,24.12,5.88,36.24,8.61,17.49,3.95,34.81,8.41,51.32,15.55,8.26,3.57,16.09,7.85,23.03,13.63,7.3,6.1,12.92,13.16,13.44,22.29-.57,11.06-6.37,18.43-13.54,25.03-.64.58-1.38,1.05-2.04,1.61-7.06,6.01-14.98,10.76-22.89,15.55-6.42,3.89-12.78,7.85-18.64,12.6-12.42,10.07-22.61,22.18-32.53,34.57-21.54,26.9-32.61,57.99-36,91.79-1.6,15.99-1.29,32.12,1.24,48.14,2.68,16.96,8.21,32.82,17.21,47.48,6.51,10.62,14.49,20.05,23.25,28.88,15.32,15.44,31.86,29.47,49.14,42.63,3.16,2.41,6.34,4.79,9.55,7.14.31.23.65.44.99.66,1.11.69,2.22,1.39,2.48,2.9h-55.59c-.65-1.41-1.74-2.25-2.95-2.9-1.02-.55-2.13-.96-3.14-1.45-4.36-2.12-8.73-4.24-13.1-6.35-7.07-3.4-14.17-6.74-21.37-9.9-16.66-7.31-33.9-13.16-51.09-19.11-14.73-5.1-29.49-10.14-44.17-15.37-12.79-4.55-25.26-9.92-37.32-16.18-18.94-9.83-33.93-23.71-44.85-41.99-5.78-9.67-10.62-19.76-14.57-30.26-3.52-9.36-9.02-17.24-16.48-23.91-9.87-8.83-21.45-14.49-33.91-18.62-20.48-6.79-41.59-6.78-62.69-4.82-15.53,1.44-30.77,4.89-45.85,8.96-29.87,8.09-59.05,18.18-87.6,30.02-17.34,7.19-34.5,14.8-51.7,22.28-10.87,4.73-21.9,8.97-33.53,11.52-12.07,2.65-24.02,2.55-36.05-.4-9.32-2.28-18.16-5.79-26.99-9.34-11.79-4.75-23.62-9.35-35.93-12.64-9.88-2.63-19.87-3.6-30.07-2.98-3.52.22-6.87,1.01-10.12,2.22-8.72,3.27-13.62,9.48-14.09,18.8-.33,6.6-.08,13.15,1.15,19.72,2.54,13.56,6.15,26.84,10.12,40.02,5.04,16.76,10.41,33.42,15.46,50.17.18.6.37,1.2.58,1.79.86,2.57,1.83,5.11,2.21,7.79.14.95.21,1.91.17,2.9h-17.37c-.2-.97-.43-1.94-.68-2.9-.69-2.65-1.57-5.24-2.54-7.79-1.42-3.75-3.02-7.44-4.5-11.17-14.52-36.61-30.56-72.55-47.85-107.95-5.17-10.58-9.94-21.37-14.76-32.12-4.13-9.22-7.03-18.84-8.82-28.75-1.04-5.69-1.13-11.4.73-17.04,1.62-4.93,4.62-8.52,9.32-10.77,5.31-2.54,10.93-3.6,16.78-3.88,9.89-.47,19.62.95,29.32,2.53,36.39,5.93,71.32,17.08,105.94,29.27,11.73,4.12,23.44,8.23,35.23,12.16,4.92,1.65,9.97,2.96,15.03,4.13,14.1,3.25,28.18,2.51,42.12-.89,30.02-7.33,60.02-14.73,89.97-22.31,23.79-6.01,47.54-12.22,71.59-17.18,13.29-2.74,26.66-4.99,40.18-6.49,14.69-1.62,29.41-2.66,44.14-2.46,27.85.39,55.4,3.43,82.09,11.87,12.67,4.01,25.07,8.7,36.93,14.82,8.49,4.37,17.63,7.21,27.39,7.44,6.95.16,13.91.55,20.77-.84,13.66-2.78,24.36-10.23,32.87-20.96,7.18-9.05,13.18-18.88,19.08-28.77,10.93-18.29,22.39-36.21,35.68-52.96,9.88-12.43,20.53-24.12,32.21-34.92,4.02-3.72,7.9-7.6,11.6-11.62,3.14-3.43,5.51-7.45,6.39-12.07,1.5-7.91-.74-14.77-6.35-20.55-3.67-3.78-8.08-6.51-12.72-8.9-9.3-4.79-19.23-7.96-29.38-10.24-11.82-2.66-23.76-4.81-35.71-6.9-8.82-1.54-17.61-3.16-26.28-5.43-2.23-.59-4.45-1.27-6.62-2.03-14.39-5.1-24.75-14.42-30.67-28.56-5.45-13.04-9.37-26.52-12.08-40.34-2.54-12.94-4.29-26-5.84-39.12-1.63-13.78-1.74-27.5-.92-41.27.48-8,1.72-15.95,2.58-23.93.68-6.28,1.53-12.54,1.91-18.83.65-10.61,2.22-21.12,3.82-31.61,1.33-8.79,2.93-17.55,5.53-26.07.92-3,2.28-5.88,3.6-8.75.74-1.6,1.98-2.82,3.76-3.11,1.67-.12,2.91.55,4,1.55,2.81,2.55,4.97,5.6,6.69,8.95,11.06,21.48,22.16,42.94,30.24,65.77,2.68,7.58,5.51,15.11,9.35,22.23,11.93,22.12,29.3,38.97,50.72,51.96,17.42,10.55,36.32,17.64,55.71,23.57,17.42,5.33,35.18,9.32,53.26,11.68,9.18,1.21,18.47,1.25,27.74.54,4.1-.31,7.96-1.47,11.55-3.41,4.44-2.39,6.71-6.18,6.97-11.17.15-2.89-.27-5.69-1-8.51-1.65-6.43-4.19-12.52-6.77-18.61-3.14-7.4-6.43-14.73-8.12-22.66-3.63-16.97-1.83-33.07,7.04-48.22,4.23-7.22,9.07-14.03,14.2-20.61,13.28-17.04,26.5-34.13,40.13-50.89,13.27-16.3,26.64-32.57,40.65-48.25,23.36-26.11,43.46-54.47,61.08-84.58,16.87-28.8,32.52-58.26,47.35-88.14,12.59-25.36,21.66-51.92,27.34-79.58,2.54-12.34,4.22-24.86,6-37.34,2.3-16.16,4.64-32.32,6.34-48.55,1.49-14.27,3.58-28.45,6.05-42.55,4.48-25.7,10.3-51.11,18-76.1,6.36-20.62,13.61-40.85,23.42-60.12,5.76-11.31,12.44-22.04,20.58-31.84,5.93-7.14,12.55-13.52,20.58-18.3,13.65-8.15,28.2-11.04,44.07-8.24,14.52,2.55,27.47,8.67,40.07,15.78,13.35,7.52,26,16.12,38.75,24.58,7.72,5.12,15.48,10.19,23.39,15Z"/>
      <path class="st1" d="M1915.22,867.16v72.1c-4.42.63-8.74,1.93-12.88,3.91-5.62,2.67-9.55,7.34-13.15,12.26-4.48,6.11-7.37,13.06-9.77,20.12-11.39,33.43-23.85,66.55-31.07,101.24-3.97,19.1-7.68,38.26-11.46,57.41-3.67,18.57-7.12,37.2-10.99,55.74-8.13,39.04-16.64,78-24.63,117.07-3.27,16.01-5.77,32.19-7.88,48.41-2.3,17.64-4.12,35.32-5.39,53.07-1.14,15.74-2.59,31.45-3.45,47.21-.73,13.45-1.66,26.94-3.5,40.27-3.74,27.16-11.45,53.22-23.36,78.04-11.28,23.5-25.73,44.86-42.8,64.57-16.09,18.57-33.99,35.25-52.8,51.07-21.87,18.4-44.78,35.44-67.93,52.21-11.97,8.67-22.9,18.45-31.87,30.29-7.8,10.3-12.92,21.68-14.74,34.48-1.11,7.83.1,15.46,2.03,23,1.95,7.55,5.08,14.65,8.67,21.55,7.53,14.45,14.71,29.05,21.28,43.95.29.62.56,1.25.83,1.87.86,1.97,2.05,3.85,2.67,5.92.28.91.44,1.87.41,2.9h-13.9c-.37-.96-.71-1.93-1.07-2.9-.34-.91-.7-1.8-1.15-2.65-.9-1.72-1.81-3.43-2.71-5.15-7.31-13.8-14.9-27.42-23.16-40.67-5.18-8.31-9.75-16.96-12.79-26.31-6.2-19.12-4.17-37.29,6.31-54.55,6.67-10.98,15.61-19.93,25.36-28.13,6.84-5.75,14.17-10.92,21.85-15.54,20.58-12.35,39.9-26.5,58.95-41.02,15.16-11.56,29.77-23.76,43.5-36.96,33.57-32.28,59.78-69.23,73.04-114.31,3.89-13.23,6.77-26.64,8.56-40.33,1.09-8.29,1.45-16.56,1.68-24.87.25-9.18,1.54-18.32,1.05-27.54-.4-7.45-1.02-14.89-1.17-22.35-.99-50.84-1.19-101.71.3-152.55.66-22.68.98-45.37,1.71-68.05.42-12.92.92-25.83,1.67-38.73,1-17.19,2.16-34.38,3.47-51.55.96-12.6,1.95-25.19,3.46-37.73,1.59-13.09,3.87-26.1,5.77-39.16,1.52-10.5,3.01-21.01,4.38-31.53,2.8-21.45,2.14-43.01,1.85-64.54-.27-20.11-1-40.22-.05-60.32.54-11.51,2.33-22.81,6.58-33.65,1.94-4.94,4.85-9.1,8.73-12.67,3.96-3.66,8.56-5.79,14.01-6.04,6.11-.29,12.12.03,18,1.94,9.65,3.14,18.88,7.22,27.78,12.05,16.62,9.02,33.15,18.22,49.8,27.19Z"/>
      <path class="st1" d="M1915.22,526.29v17.45c-2.74-.06-5.49-.14-8.24-.19-10.68-.22-21.3-1.56-31.89-3.02-5.72-.79-11.46-1.53-17.22-1.86-12.12-.71-24.14-2.71-36.33-2.41-2.29.06-4.6-.33-6.91-.49-2.02-.15-4.04-.42-6.05-.37-21.83.62-43.1,3.64-63.22,12.89-9.68,4.44-19.47,8.85-29.97,11.23-4.22.96-8.41,2.19-12.68,2.82-17.49,2.57-32.26,10.43-45.18,22.18-13.78,12.53-24.88,27.16-34.68,42.86-16.69,26.75-28.91,55.53-39.23,85.17-9.08,26.04-16.08,52.67-22.85,79.37-4.52,17.8-9.22,35.56-15.55,52.84-2.57,7.03-5.44,13.93-9.7,20.15-1.29,1.9-2.64,3.8-4.26,5.42-5.88,5.91-11.7,5.67-17.01-.68-3.15-3.77-5.76-7.92-7.81-12.39-2.27-4.97-4.5-9.95-6.57-15-5.75-14.1-11.27-28.29-17.15-42.33-6.67-15.92-14.17-31.44-23.45-46.08-6.82-10.76-14.64-20.67-24.29-29.09-4.59-4.01-9.6-7.38-15.09-10.07-5.68-2.78-11.53-3.59-17.28-1.8-4.35,2.47-6.71,6.03-8.23,10.17-2.11,5.68-3.59,11.54-3.73,17.62-.22,9.19-.32,18.38-.31,27.58.02,12.36.17,24.71.3,37.07.05,4.91-.63,9.74-1.82,14.49-1.16,4.6-3.2,8.63-8.09,11.11-4.28,1.37-8.82.73-13.09-1.35-4.66-2.28-9.37-4.57-13.71-7.39-11.38-7.38-22.7-14.86-33.83-22.62-42-29.3-87.71-51.02-136.6-66.36-20.96-6.58-42.16-12.23-63.68-16.55-16.12-3.23-32.41-5.66-48.94-6.42-11.37-.53-22.53-.11-33.59,2.3-7.1,1.54-13.79,4.17-19.84,8.36-9.32,6.47-14.54,15.23-16.08,26.42-1.09,7.96-1.34,16.01-3.13,23.89-2.02,8.92-6.04,16.68-12.27,23.37-5.54,5.95-12.03,10.73-18.75,15.27-6.93,4.68-13.82,9.44-20.69,14.22-3.59,2.51-6.46,5.73-8.95,9.3-3.53,5.1-5.4,10.71-5.74,16.91-.55,9.95,1.8,19.37,5.06,28.63,2.86,8.14,6.28,16.05,10.01,23.83,9.96,20.75,21.22,40.83,32.62,60.82,13.69,23.99,27.68,47.8,42.27,71.26,11.1,17.86,23.22,35.03,36.07,51.68,3.17,4.1,6.18,8.33,9.18,12.55,10.19,14.31,16.31,30.28,19.71,47.4,4.73,23.82,5.6,47.9,4.53,72.05-.54,12.03-1.73,24.05-3.25,36-1.51,11.95-3.81,23.79-7.93,35.2-2.26,6.27-5.18,12.17-9.11,17.55-7.43,10.13-17.28,15.86-30.1,16.18-8.47.22-16.69-.95-24.79-3.48-11.35-3.55-22.23-8.18-32.82-13.51-11.86-5.98-23.66-12.1-35.38-18.35-21.42-11.42-43.08-22.31-65.77-31.08-16.79-6.49-34.14-10.99-52.03-12.82-28.91-2.95-54.38,4.75-75.29,25.56-8.19,8.15-15.43,17.13-23.03,25.78-9.52,10.82-18.86,21.8-28.43,32.57-9.18,10.35-18.47,20.6-27.91,30.72-8.65,9.3-17.99,17.9-28.34,25.35-6.84,4.93-14.22,8.91-22.38,11.16-13.18,3.63-26.29,2.94-39.33-1.02-13.19-4.01-24.88-10.73-35.75-19.02-15.53-11.84-28.25-26.32-39.74-41.91-6.66-9.04-12.83-18.43-19.29-27.61-4.47-6.36-9.02-12.67-13.62-18.93-3.76-5.14-8.29-9.59-13.02-13.83-3.93-3.53-8.5-5.96-13.33-7.94-7.9-3.25-15.85-2.6-23.79-.09-7.26,2.29-13.67,6.13-19.68,10.72-8.78,6.72-16.17,14.75-22.7,23.62-12.72,17.32-21.96,36.43-29.11,56.56-6.64,18.71-11.43,37.88-14.32,57.54-1.5,10.23-2.55,20.47-3.56,30.75-1.88,19.23-1.47,38.46-.93,57.68.28,10.01,1.76,19.99,2.67,29.98.49,5.42,1.09,10.83,1.79,16.24,3.82,29.64,10.28,58.72,18.55,87.43,12.92,44.87,30.97,87.66,52.71,129,14.33,27.25,30.03,53.72,45.49,80.34,8.25,14.17,16.4,28.4,23.2,43.34,1.05,2.31,2.08,4.63,3.07,6.97.92,2.16,1.82,4.33,2.68,6.51.17.41.26.84.32,1.28.15.94.15,1.95.27,2.9h-22.58c-.07-.97-.17-1.94-.29-2.9-.3-2.63-.77-5.22-1.35-7.79-1.22-5.42-2.97-10.72-4.95-15.95-3.77-9.96-8.25-19.61-13.27-28.98-11.53-21.56-23.23-43.02-34.92-64.48-23.15-42.5-43.48-86.22-58.86-132.11-9.94-29.69-18.11-59.85-23.87-90.63-2.8-14.94-5.17-29.93-7.01-45.02-2.02-16.55-2.92-33.13-3.7-49.77-.76-15.83.08-31.58.96-47.33.85-15.44,3.26-30.78,6.52-45.96,6.13-28.51,15.86-55.74,29.71-81.47,9.58-17.79,20.61-34.62,34.56-49.4,8.14-8.61,16.82-16.61,26.97-22.92,6.9-4.29,14.11-7.87,21.95-10.12,17.73-5.08,32.52-.23,44.56,13.31,5.58,6.27,10.06,13.32,14.09,20.65,7.06,12.86,13.88,25.85,21.13,38.59,8.13,14.3,17.48,27.75,29.5,39.23,5.24,5,10.84,9.49,17.18,13.05,18.2,10.22,36.77,10.94,55.69,2.08,8.16-3.82,15.65-8.67,22.7-14.24,11.35-8.98,21.43-19.27,31.1-29.99,15.07-16.68,29.45-33.96,43.54-51.47,14.78-18.36,33.76-29.23,56.91-33.38,16.38-2.94,32.76-2.64,49.17-.33,27.14,3.82,52.63,13.11,77.62,23.78,14.08,6.01,27.86,12.67,41.77,19.07,13.11,6.04,26.26,12.02,39.88,16.87,10.09,3.6,20.31,6.54,31.21,6.64,16.49.16,28.13-7.2,35.51-21.65,2.5-4.9,4.15-10.05,5.41-15.4,3.27-13.86,3.46-27.86,2.17-41.95-2.47-27.16-10.79-52.77-20.91-77.88-16.02-39.75-34.18-78.51-54.46-116.29-13.61-25.35-28.42-50.01-43.64-74.43-12.48-20.02-25.21-39.9-36.69-60.52-5.46-9.81-10.6-19.78-14.51-30.31-2.81-7.57-4.87-15.3-4.58-23.51.24-6.62,2.58-12.3,7.04-17.15,3.14-3.41,6.7-6.36,10.87-8.48,4.9-2.48,9.83-4.88,14.76-7.3,5.19-2.55,10.46-4.93,15.54-7.67,11.94-6.45,20.18-16.12,24.68-28.88,1.34-3.79,2.48-7.64,3.65-11.48,1.42-4.66,2.69-9.37,4.2-14.01,5.95-18.28,18.62-30.07,36.52-36.49,13.28-4.76,27.02-5.61,41.05-4.29,22.28,2.08,43.78,7.7,65.17,13.74,35.3,9.98,70.28,20.95,104.76,33.51,21.18,7.71,42.12,15.99,62.72,25.09,12.41,5.48,24.77,11.11,37.65,15.47,3.54,1.2,7.24,1.94,10.81,3.07,4.68,1.47,9.12,1.15,13.73-1.41,3.82-3.23,4.69-8.06,5.17-12.93.31-3.14.33-6.34.04-9.48-.69-7.42-1.65-14.83-2.48-22.24-1.62-14.56-3.01-29.14-2.22-43.83.29-5.48,1.29-10.82,2.77-16.08,3.09-11.02,11.26-15.96,21.68-16.64,6.73-.45,13.24.78,19.62,2.84,7.17,2.31,14,5.37,20.63,8.95,30.79,16.65,54.15,40.86,72.71,70.02,8.19,12.89,15.19,26.44,22.6,39.76,3.77,6.78,7.7,13.49,11.89,20.02,2.63,4.1,5.62,8.02,9.79,10.84,5.35,3.62,9.19,3.42,14.05-.91,4.85-4.32,7.91-9.86,10.57-15.62,4.21-9.14,7.75-18.55,10.99-28.07,6.75-19.84,13.38-39.72,20.35-59.48,9.48-26.86,20.8-52.94,34.98-77.73,13.78-24.11,29.9-46.45,50.75-65.16,7.98-7.17,16.79-13.13,26.33-18.09,12.03-6.27,24.93-8.98,38.35-9.68,4.62-.24,9.26-.09,13.89-.17,8.38-.17,16.74-.37,25.11-1.28,10.93-1.17,21.97-1.03,32.97-.56,12.71.53,25.43.98,38.09,2.16,8.07.75,16.18.81,24.21,1.72,17.02,1.92,34.08,1.57,51.14,1.55,2.21,0,4.41-.08,6.6-.22Z"/>
      <path class="st1" d="M1904.79,1187.91c3.3-8.25,6.71-16.46,10.43-24.52v159.98c-1.57,1.49-3.17,2.96-4.79,4.41-11.16,10.01-22.34,19.99-32.7,30.86-20.38,21.38-35.14,46.15-45.95,73.45-8.49,21.45-14.48,43.56-18.84,66.13-8.49,44-25.2,84.59-50.66,121.63-10.95,15.92-23.04,30.93-35.96,45.31-18.53,20.63-38.94,39.32-59.63,57.75-15.29,13.62-31.09,26.69-45.49,41.28-7.31,7.42-13.84,15.46-19.13,24.43-6.57,11.14-10.19,23.15-9.64,36.11.31,7.47,2.12,14.74,4.39,21.87,5.15,16.16,10.21,32.34,15.35,48.51.51,1.61,1.02,3.23,1.54,4.85.31.99.69,1.96.92,2.95.22.93.3,1.88.08,2.9h-13.9c-.21-.96-.32-1.95-.55-2.9-.1-.42-.21-.84-.36-1.23-.84-2.19-1.69-4.37-2.54-6.56-5.58-14.42-11.2-28.81-16.79-43.23-1.45-3.75-2.82-7.53-4.12-11.33-7.22-21.07-3.94-40.72,8.31-59.1,6.59-9.88,14.5-18.67,23.55-26.35,14.08-11.95,28.38-23.63,42.58-35.42,23.11-19.18,45.54-39.09,65.86-61.23,23.52-25.62,43.6-53.59,58.3-85.18,10.6-22.76,18.46-46.4,22.27-71.24,1.78-11.61,3.22-23.28,5.13-34.88,2.1-12.73,4.46-25.41,6.88-38.08,4-20.87,8.89-41.52,15.49-61.73,6.88-21.06,15.16-41.56,25.12-61.38,4.52-8.99,9-18.01,13.71-26.9,15.64-29.53,28.74-60.18,41.13-91.16Z"/>
      <path class="st1" d="M352.47,1791.44c3.43,15.01,3.93,30.07,1.62,45.31-1.38,9.1-3.2,18.07-5.73,26.91-3.16,11.08-7.26,21.72-13.2,31.45-1.62,2.67-3.4,5.27-5.32,7.79-.74.97-1.51,1.94-2.3,2.9h-34.74c.03-1.47.96-2.25,1.97-2.9.42-.27.84-.52,1.23-.78,3.11-2.13,5.9-4.47,8.39-7.01,7.81-7.92,12.78-17.72,15.69-28.75,5.38-20.45,6.91-41.22,4.62-62.32-1.12-10.3-2.72-20.44-5.14-30.52-3.09-12.91-7.66-25.29-13.19-37.3-13.28-28.83-29.46-55.97-49.09-81.04-10.13-12.93-21.35-24.77-33.61-35.57v-62.68c2.38,2.91,4.79,5.79,7.23,8.66,18.51,21.81,34.76,45.19,49.01,69.92,20.4,35.41,38.88,71.81,55.93,108.92,6.96,15.15,12.93,30.69,16.65,47.01Z"/>
      <path class="st1" d="M1915.22,215.87v3.03c-1,1.22-1.95,2.48-2.85,3.81-4.64,6.79-7.53,14.26-9.04,22.2-1.22,6.47-1.97,13.04-2.12,19.68-.46,20.96-1.11,41.92-1.77,62.88-.19,6.02-.76,12.04-.96,18.05-.16,4.59-.37,9.23.09,13.78,1.04,10.32,1.07,20.65.94,30.99-.09,6.94-1.42,13.71-3.47,20.3-5.12,16.49-16.52,26.46-33,31.21-6.18,1.78-12.53,2.41-18.83,2.88-8.92.68-17.93.77-26.86-.42-1.42-.2-2.87-.38-4.31-.43-12.72-.42-25.35-1.92-37.98-3.4-8.9-1.03-17.91-1.18-26.77-2.42-11.49-1.61-23.11-1.11-34.59-2.52-.57-.07-1.16-.1-1.74-.09-18.57.49-36.93,1.92-54.25,9.6-12.31,5.47-23.08,13.07-32.79,22.25-9.25,8.75-17.1,18.71-24.61,28.94-8.52,11.6-16.79,23.38-25.41,34.91-7.94,10.62-16.45,20.8-26.09,29.95-7.12,6.77-14.7,12.96-23.49,17.57-8.35,4.39-17.15,6.61-26.6,6.77-10.84.18-21.26-1.82-31.56-4.91-15-4.49-29.28-10.73-43.41-17.34-10.72-5.02-21.37-10.21-32.23-14.92-17.84-7.74-36.5-12.61-55.8-15.27-13.47-1.85-26.93-3.31-40.56-3.52-14.27-.21-28.26,1.49-42.14,4.59-10.42,2.33-20.86,4.63-31.32,6.83-12.2,2.57-24.62,3.88-37.03,3.65-13-.25-25.93-1.99-38.62-5.14-13.45-3.35-26.91-6.73-40.39-9.95-15.19-3.64-30.52-6.15-46.18-7.23-22.81-1.59-44.26,2.85-64.92,11.97-18.36,8.11-34.93,19.09-50.72,31.32-11.18,8.66-22.35,17.33-34.2,25.08-8.71,5.69-17.68,10.91-27.36,14.86-11.39,4.64-23.24,6.85-35.53,6.79-5.79-.02-11.58-.09-17.36-.25-13.61-.36-25.61,4.16-36.31,12.16-19.59,14.66-33.01,33.68-39.09,57.36-4.9,19.06-3.87,38.12,1.87,56.93,4.72,15.48,11.71,29.94,19.87,43.88,11.22,19.15,24.28,37.06,37.69,54.72,17.59,23.16,35.35,46.2,52.8,69.46,18.51,24.69,35.24,50.54,49.56,77.85,10.42,19.87,19.79,40.24,25.45,62.05,2.82,10.87,4.61,21.88,4.55,33.15-.03,6.36-1.12,12.55-2.68,18.68-4.53,17.84-16.35,27.89-34.13,31.38-11.14,2.17-22.39,2.38-33.67.85-6.58-.89-13.24-.94-19.85-1.95-10.27-1.56-20.65-2.44-30.98-3.59-17.85-1.98-35.77-2.62-53.72-2.42-2.89.03-5.78.12-8.68.14-17.72.14-35.16,2.66-52.43,6.28-14.97,3.16-29.81,6.91-44.76,10.17-5.06,1.11-10.26,2.03-15.43,2.22-11.35.39-21-3.51-27.98-12.77-4-5.3-7.06-11.18-10.24-16.99-2.9-5.29-5.75-10.63-8.85-15.8-8.95-14.94-22.43-23.68-39.26-27.51-12.53-2.85-25.19-2.84-37.95-1.23-30.09,3.78-57.38,15.17-83.46,29.89-26.75,15.1-51.52,32.97-74.76,52.97-42.91,36.95-79.92,78.98-110.2,126.76-12.39,19.56-23.44,39.73-33.07,60.55v-52.79c5.86-9.34,11.95-18.56,18.27-27.66,16.78-24.17,35.19-47.02,55.13-68.7,34.92-37.99,73.98-71.1,117.52-98.95,30.27-19.37,62.29-35.16,96.66-46.15,25.65-8.21,51.83-11.89,78.67-9.59,24.59,2.1,46.65,10.64,65.13,27.31,4.92,4.44,9.95,8.79,14.63,13.48,9.99,10,22.18,15.49,36,17.45,7.43,1.04,14.9,1.9,22.44,2.1,16.77.44,33.55,1.1,50.31,1.99,10.96.59,21.88,2.06,32.84,2.55,15.03.66,29.98,2.67,45.06,2.34,7.82-.17,15.59-.28,23.34-1.66,5.18-.91,10.16-2.31,14.95-4.33,10.77-4.54,17.73-12.68,21.35-23.6,1.44-4.35,2.2-8.87,2.47-13.51.95-16.39-2.54-31.94-8.49-47.08-7.61-19.31-17.23-37.62-27.98-55.36-15.54-25.63-33.32-49.73-51.59-73.48-15.1-19.63-30.37-39.14-45.26-58.93-14.56-19.36-27.81-39.56-38.18-61.51-6.55-13.84-11.5-28.19-14.04-43.27-.81-4.79-.76-9.73-1.02-14.61-1.3-24.62,5.53-47.09,18.16-68.05,6.11-10.13,13.25-19.55,20.99-28.48,12.12-13.95,25.01-27.14,39.8-38.37,6.45-4.9,13.28-9.21,20.59-12.75,8.41-4.06,17.15-6.81,26.57-7.28,5.78-.28,11.53-.88,17.31-1.02,11.18-.27,21.73-2.94,31.82-7.56,8.16-3.74,16.08-7.93,23.49-12.98,11.45-7.8,22.92-15.57,34.2-23.62,15.54-11.08,31.57-21.37,48.69-29.86,17.88-8.86,36.39-16.18,56.04-20.43,13.43-2.9,26.99-3.71,40.55-2.12,13.35,1.56,25.8,6.29,37.44,12.96,6.26,3.6,12.4,7.4,18.65,11.03,10.74,6.24,21.62,12.22,33.68,15.7,9.48,2.73,19.11,4.67,28.99,4.81,10.42.14,20.85.22,31.26-.1,20.38-.61,40.4,1.83,60.22,6.25,13.52,3.02,27.03,6.12,40.58,9.02,19.56,4.18,38.42,10.5,57.1,17.51,9.73,3.66,19.55,7.08,29.73,9.35,15.11,3.38,30.28,4.29,45.6,1.25,10.93-2.16,20.94-6.47,30.33-12.32,12.39-7.73,22.61-17.85,31.92-28.93,8.94-10.64,15.76-22.69,23.17-34.33,4.03-6.32,8.37-12.42,13.15-18.19,14.5-17.52,33.19-28.36,55.15-33.79,8.42-2.09,16.95-3.64,25.67-3.97,5.49-.22,10.98-1.15,16.43-.92,9.52.4,19.07,1,28.51,2.29,19.74,2.71,39.37,6.25,59.13,8.8,12.31,1.6,24.74,2.75,37.22,1.96,8.67-.55,17.21-1.72,25.47-4.72,12.86-4.66,19.48-13.87,20.33-27.23.62-9.77-.09-19.53-.84-29.27-.24-3.15-.57-6.29-.68-9.45-.5-14.35-.61-28.69-1.59-43.05-1.31-19.19-1.75-38.45-2.53-57.67-.15-3.73-.13-7.47-.12-11.2,0-7.39,1.36-14.25,3.87-20.65h57.33Z"/>
      <path class="st1" d="M285.19,1816.55c.15,13.54-.69,26.97-4.91,39.98-4.07,12.58-11.99,22.07-23.22,29.06-6.21,3.86-12.78,6.91-19.54,9.52h-13.88s0-38.67,0-38.67c2.77-3.04,5.09-6.5,6.92-10.43,2.8-6.03,4.5-12.38,5.04-19.05,1.49-18.68-1.77-36.64-8.23-54.09-1.16-3.14-2.41-6.22-3.73-9.25v-83.9c11.04,10.95,20.63,23.1,28.93,36.32,13.73,21.87,23.69,45.31,28.83,70.65,1.37,6.75,2.66,13.52,2.93,20.43.13,3.16.83,6.29.86,9.43Z"/>
      <path class="st1" d="M1821.2,366.48c-1.62,7.83-6.18,13.55-13.83,16.45-5.42,2.06-11.02,3.38-16.88,3.67-13.36.67-26.58-.6-39.75-2.56-10.29-1.53-20.57-3.09-30.88-4.47-12.02-1.61-24.07-3.04-36.11-4.55-.57-.07-1.16-.13-1.73-.16-18.49-.95-36.97-2.72-55.5-1.72-18.21.99-36.35,2.6-53.81,8.41-13.99,4.65-26.38,11.76-35.88,23.22-6.1,7.35-10.8,15.61-15.23,24.03-2.94,5.6-5.76,11.27-8.7,16.87-10.86,20.68-28.02,33.14-50.8,38.17-3.08.68-6.27,1.05-9.43,1.27-11.6.78-23.12-.21-34.58-2.08-21.68-3.55-43.18-7.96-64.16-14.55-10.75-3.38-21.44-6.95-32.08-10.66-19.68-6.85-39.85-11.89-60.28-15.91-20.55-4.04-39.01-12.39-55.36-25.38-7.91-6.28-15.8-12.59-23.93-18.57-10.84-7.97-22.83-13.45-36.3-15.54-9.22-1.43-18.45-1.38-27.66-.22-22.59,2.81-43.83,10.23-64.66,18.96-20.84,8.73-40.45,19.84-60.29,30.48-14.26,7.66-28.64,15.05-43.97,20.43-7.08,2.48-14.21,4.96-21.5,6.69-29.24,6.95-55.07,20.64-78.79,38.59-32.41,24.51-60.99,52.87-86.13,84.68-8.58,10.86-16.67,22.06-24.28,33.59-8.26,12.54-15.4,25.66-20.31,39.87-3.95,11.42-6.49,23.08-7.43,35.23-1.92,24.74,3.74,47.85,13.59,70.2,9.2,20.88,21.47,40.02,34.7,58.56,15.56,21.81,32.38,42.67,48.67,63.92,13.84,18.06,27.39,36.34,39.76,55.44,9.88,15.24,19,30.88,26.03,47.65,1.88,4.49,3.47,9.11,5.12,13.71,2.75,7.7,3.39,15.67,3.08,23.77-.5,12.99-7.05,26.62-23.98,32.68-6.8,2.43-13.88,4.02-21.18,4.19-11.57.27-23.09.14-34.65-1.25-15.27-1.82-30.25-4.61-44.98-8.96-9.74-2.87-19.1-6.65-28.17-11.13-9.84-4.87-19.56-9.98-29.37-14.92-15.79-7.97-32.28-14.02-49.62-17.75-11.89-2.56-23.85-4.51-36.04-4.73-6.66-.12-13.32-.17-19.98-.02-18.58.43-36.78,3.54-54.77,7.97-36.7,9.04-71.32,23.3-104.48,41.2-38.79,20.96-74.53,46.23-108.06,74.71-37.3,31.68-70.9,66.82-101.06,105.27-.66.84-1.32,1.68-1.96,2.53v-32.86c.69-.78,1.39-1.57,2.09-2.35,13.45-15.05,27.17-29.86,41.7-43.89,38.91-37.56,80.72-71.54,126.66-100.35,41.77-26.19,85.87-47.45,133.33-61.48,17.74-5.25,35.8-8.98,54.14-11.66,20.71-3.03,41.49-3.82,62.31-2.7,19.35,1.03,38.46,4.15,57.25,9.07,17.07,4.47,33.73,10.2,50.45,15.72,12.62,4.17,25.35,7.99,38.5,10.2,9.47,1.59,19.01,1.82,28.55.76,4.92-.54,9.52-2.26,13.71-5.01,7.81-5.12,10.65-12.52,10.08-21.45-.63-9.92-4.26-19.02-8.32-27.93-4.42-9.69-9.73-18.93-15.4-27.95-12.88-20.5-27.52-39.76-42.12-59.04-11.65-15.38-23.27-30.8-34.59-46.42-11.15-15.41-21.21-31.52-29.72-48.54-8.41-16.8-14.63-34.35-17.56-52.92-.71-4.52-.7-9.16-1-13.74-1.61-25.29,4.45-48.96,15.39-71.6,4.01-8.3,8.57-16.29,13.56-24.04,20.45-31.79,43.21-61.78,69.08-89.47,40.6-43.46,86.06-80.97,137.22-111.58,17.61-10.54,35.83-19.99,54.63-28.22,29.37-12.86,58.88-25.4,88.38-37.96,12.22-5.21,24.68-9.78,37.36-13.87,16.33-5.28,33.04-8.7,50.15-9.17,20.31-.56,38.94,4.92,54.7,18.18,5.74,4.82,11.17,10.01,16.76,15,5.59,4.99,11.1,10.09,16.87,14.87,9.41,7.8,20.05,13.69,31.36,18.19,22.29,8.86,44.23,18.52,66.33,27.82,12.27,5.17,24.95,9.24,38.16,11.26,12.65,1.92,25.33,2.23,37.94-.77,12.12-2.89,21.51-9.52,28.44-19.74,5.03-7.4,9.24-15.26,13.39-23.15,5.63-10.71,11.69-21.16,18.93-30.89,5.16-6.94,10.74-13.49,17.67-18.86,10.86-8.41,22.92-13.01,36.83-13.08,11.34-.06,22.52,1.15,33.69,2.78,14.29,2.1,28.58,4.24,42.86,6.4,16.86,2.55,33.7,5.14,50.56,7.69,13.42,2.03,26.87,3.9,40.27,6.09,12.85,2.1,25.81,3.19,38.76,4.33,9.02.8,17.96-.09,26.6-2.71,9.63-2.92,15.66-9.2,17.6-19.32,1.64-8.6,1.19-17.13.33-25.72-1.62-16.3-5.1-32.31-7.36-48.49-1.89-13.62-1.42-26.75,1.41-39.32h29.25c-.16.67-.3,1.35-.43,2.03-2.33,11.72-2.04,23.44-.37,35.13,2.48,17.31,5.21,34.6,8.14,51.84,1.98,11.62,3.02,23.32,4.28,35.01.96,8.91.53,17.82-1.29,26.59Z"/>
      <path class="st1" d="M1915.22,562.8v14.67c-2.82-.58-5.64-1.2-8.45-1.85-17.43-4.04-34.79-8.38-52.29-12.15-16.99-3.66-34.2-5.61-51.65-4.36-21.37,1.54-40.47,8.73-57.18,22.23-12.69,10.26-22.99,22.62-32.54,35.64-10.74,14.65-20.12,30.16-29.76,45.52-5.05,8.04-10.21,16-16.1,23.5-4.53,5.75-9.75,10.81-16.18,14.14-14.25,7.37-23.64,19.06-31.11,32.68-7.77,14.16-13.93,29-19.18,44.24-7.66,22.28-13.51,45.06-18.96,67.94-5.78,24.27-11.6,48.53-19.22,72.33-14.2,44.37-36.82,84.12-66.59,119.95-4.42,5.32-9.22,10.29-14.85,14.43-3.53,2.6-7.27,4.66-11.39,5.31-4.46-.53-7.03-2.98-8.83-6.55-2.11-4.15-3.14-8.63-4.21-13.09-1.33-5.58-2.31-11.25-3.73-16.81-1.27-4.99-2.61-9.98-5.3-14.51-2.49-4.22-5.91-7.04-10.85-7.77-2.85-.42-5.72-.84-8.59-.95-6.11-.23-11.13-2.78-15.53-6.79-4.3-3.93-7.7-8.59-10.54-13.61-3.97-7.01-7.91-14.04-11.6-21.18-8.58-16.61-17.45-33.06-27.25-49.01-15.8-25.71-34.85-48.74-57.62-68.58-29.58-25.78-63.3-44.21-101.52-54.06-13.17-3.4-26.59-5.4-40.23-5.91-6.71-.25-13.31.52-19.83,1.76-3.38.64-6.72,1.79-9.86,3.2-5.17,2.33-9.02,6.15-11.24,11.43-.67,1.6-1.38,3.17-1.93,4.8-3.03,9.07-8.95,16.01-16.44,21.71-3.9,2.97-7.96,5.73-12.08,8.4-12.85,8.31-25.85,16.39-37.56,26.31-7.1,6.03-13.22,12.86-17.92,20.9-7.11,12.17-9.19,25.21-6.91,39.04,2.08,12.65,6.72,24.3,13.69,35.07,7.56,11.7,17.74,20.35,30.49,26.03,3.69,1.65,7.48,3.08,11.19,4.69,4.51,1.95,9.01,3.92,13.45,6.01,9.59,4.52,16.13,11.94,20.47,21.42,3.25,7.1,5.38,14.58,6.76,22.19,1.85,10.15,3.22,20.37,4.25,30.67,1.17,11.74.89,23.53,1.83,35.24,1.26,15.51,1.02,31.01.77,46.51-.28,17.52-.63,35.05-1.75,52.53-.63,9.73-.7,19.52-1.66,29.21-1.62,16.25-1.99,32.62-4.43,48.81-1.11,7.35-1.36,14.84-2.25,22.24-2.96,24.77-6.27,49.47-13.75,73.43-2.58,8.26-5.86,16.2-10.28,23.66-7.53,12.67-18,21.68-32.7,25.05-6.77,1.55-13.65,2.07-20.64,1.75-16.53-.77-32.64-4.34-48.93-6.71-10.29-1.51-20.6-2.88-30.91-4.31-18.6-2.57-37.23-5.03-55.81-7.73-17.17-2.5-34.34-4.6-51.77-4.73-25.45-.19-48.52,6.85-69.34,21.15-10.94,7.51-21.57,15.49-32.36,23.22-13.15,9.42-26.76,18.16-40.91,26.03-12.67,7.04-26.01,12.51-40.38,15.21-13.71,2.57-27.43,3.23-41.39,1.63-31.74-3.65-60.16-15.82-87.07-32.13-17.57-10.64-33.83-23.11-49.97-35.75-9.08-7.11-18.34-14.01-27.76-20.68-6.6-4.68-13.7-8.57-21.59-10.83-12.49-3.57-23.98-1.94-34.5,5.91-8.28,6.18-14.19,14.27-19.15,23.12-7.82,13.92-12.65,28.92-15.79,44.47-2.04,10.12-3.03,20.38-4.07,30.67-1.35,13.5-1.35,27-.76,40.45.45,10.28.85,20.62,2.49,30.85.87,5.36,1.2,10.81,1.95,16.22,3.13,22.48,8.03,44.56,14.14,66.4,12.98,46.46,32.65,90.09,56.18,132.14,13.91,24.87,29.54,48.7,44.44,72.97,9.43,15.35,18.2,31.06,25.95,47.32.43.89.85,1.78,1.27,2.67.79,1.69,1.98,3.29,2.46,5.12.24.9.3,1.85.06,2.9h-13.9c-.4-.97-.81-1.93-1.23-2.9-1.11-2.62-2.28-5.22-3.48-7.79-7.36-15.75-16.09-30.8-25.02-45.72-12.71-21.24-25.74-42.27-38.12-63.69-25.54-44.21-46.61-90.4-61.06-139.43-6.57-22.31-11.97-44.89-15.6-67.86-2.23-14.17-4.05-28.35-5.29-42.65-1.78-20.38-2.12-40.77-.94-61.11,1.57-26.98,5.66-53.6,15.04-79.19,4.17-11.38,9.31-22.25,15.77-32.52,4.95-7.86,10.98-14.8,17.92-20.96,1.72-1.53,3.52-3,5.43-4.29,13.82-9.32,28.01-9.79,42.45-1.51,6.04,3.46,11.6,7.6,16.61,12.42,7.9,7.6,15.72,15.28,23.42,23.07,12.79,12.92,25.86,25.54,40.24,36.73,11.64,9.06,23.91,17.13,37.16,23.75,14.6,7.29,29.87,12.58,46.1,14.39,22.56,2.52,43.86-1.14,62.52-14.99,3.47-2.57,6.71-5.49,9.8-8.49,21.32-20.68,42.58-41.44,63.86-62.17,7.85-7.65,15.64-15.35,24.3-22.13,12.39-9.72,25.9-17.3,41.3-21.25,6.73-1.72,13.55-2.85,20.52-3.17,19.9-.93,39.17,2.49,58.13,8.1,19.99,5.91,39.25,13.74,58.24,22.24,15.3,6.83,30.46,13.96,45.76,20.78,11.62,5.19,23.61,9.4,36.16,11.86,7.76,1.52,15.6,1.74,23.32.47,9.44-1.54,17.21-6.45,23.57-13.55,6.47-7.22,10.53-15.73,13.7-24.74,3.06-8.7,5.1-17.66,6.77-26.68,3.22-17.49,5.85-35.05,7.57-52.78,1.49-15.42,2.47-30.87,3.54-46.32,1.95-28.14,1.89-56.29.83-84.41-.69-18.3-2.07-36.66-6.24-54.66-1.23-5.34-2.75-10.55-4.58-15.69-3.89-10.94-10.84-19.59-20.59-25.9-5.33-3.44-10.81-6.68-16.4-9.69-18.18-9.8-32.74-23.5-44.59-40.2-14.09-19.84-25.27-41.18-33.15-64.17-3.46-10.07-6.03-20.37-5.91-31.15.13-12.53,4.18-23.65,12.27-33.27,6.15-7.3,13.29-13.61,20.53-19.8,5.05-4.31,10.19-8.5,15.19-12.86,5.02-4.36,9.66-9.1,13.56-14.5,4.46-6.19,7.43-12.92,8.05-20.61.31-4.01,1.09-7.98,1.22-11.99.36-10.52,5.76-17.79,14.57-22.93,3.75-2.19,7.75-3.81,11.97-4.97,13.31-3.64,26.91-3.94,40.48-2.8,10.93.91,21.81,2.37,32.62,4.43,53.09,10.1,101.75,30.22,145,62.68,17.12,12.86,32.9,27.16,47.46,42.85,10.2,11,20.21,22.14,30.07,33.44,3.79,4.33,7.88,8.43,12.08,12.37,2.72,2.54,5.73,4.87,8.93,6.79,7.54,4.55,14.34,3.29,20-3.51,2.97-3.56,5.26-7.57,6.97-11.86,2.97-7.48,5.85-14.99,8.77-22.49,2-5.09,4.22-10.06,7.33-14.61,2.21-3.22,4.9-5.64,9.23-6.41,4.25.72,7.48,3.32,10.13,6.98,4.08,5.65,7.09,11.86,9.67,18.26,4.63,11.48,7.9,23.37,10.62,35.43,2.91,12.87,5.7,25.78,8.78,38.61,1,4.16,2.61,8.21,4.22,12.19,1.42,3.52,3.61,6.54,7.29,8.35,4.52,1.16,8.33-.25,11.99-3.1,5.31-4.14,9.46-9.25,13.31-14.66,8.08-11.35,13.78-23.89,18.74-36.8,7.43-19.34,12.63-39.33,17.34-59.45,5.77-24.56,11.26-49.2,17.44-73.66,7.74-30.67,17.82-60.58,31.55-89.18,6.73-14.01,14.18-27.63,23.7-40.04,4.41-5.74,9.36-10.95,14.81-15.7,5.04-4.41,10.76-7.74,16.99-10.22,1.35-.53,2.68-1.09,4.06-1.51,11.33-3.45,20.85-9.79,29.4-17.76,8.43-7.87,16.81-15.8,25.4-23.5,7.73-6.95,16.02-13.21,25.04-18.48,12.38-7.23,25.74-11.36,39.94-13.43,10.67-1.56,21.34-1.35,32.02-1.08,6.62.16,13.27.87,19.82,1.92,14.81,2.36,29.53,5.28,44.35,7.62,8.76,1.39,17.49,3.04,26.28,4.22Z"/>
      <path class="st1" d="M1915.22,725.5v29.03c-9.38-7.29-18.34-15.1-27.18-23.06-11.14-10.04-22.28-20.1-33.53-30.01-8.46-7.44-17.43-14.23-27.06-20.14-4.69-2.88-9.55-5.41-14.71-7.34-14.63-5.48-28.31-4.03-40.96,5.48-4.88,3.67-9.26,7.79-13.12,12.5-6.05,7.39-11.12,15.39-15.39,23.91-7.51,14.96-12.8,30.73-17.36,46.77-8.66,30.43-13.51,61.56-17.11,92.91-1.34,11.67-2.59,23.37-3.4,35.09-.85,12.3-2.22,24.55-3.68,36.79-1.49,12.54-3.65,24.94-6.46,37.26-5.08,22.2-12.79,43.49-22.56,64.04-8.01,16.88-16.29,33.63-24.38,50.48-14.57,30.33-30.35,60.04-47.39,89.09-12.68,21.6-26.43,42.53-39.8,63.7-11.38,18.03-22.12,36.39-30.52,56.02-4.97,11.62-9.65,23.37-13.31,35.47-3.27,10.82-2.65,21.48,1.53,32.04,2.79,7.06,6.84,13.29,11.61,19.09,6.05,7.35,12.61,14.25,19.67,20.65,10.69,9.69,21.37,19.4,32.23,28.88,9.35,8.15,18.65,16.36,28.71,23.68,3.99,2.91,8.2,5.4,12.78,7.23,1.9.77,3.89,1.13,5.82-.24,1.76-2.1,2.14-4.51,1.69-7.22-1.28-7.64-2.38-15.31-3.68-22.94-.68-4.01-.89-8.02-.47-12.02.91-8.67,6.11-14.3,13.97-15.12,1.97-.21,4.05.03,6.01.41,4.59.91,8.73,2.96,12.65,5.47,8.14,5.21,14.71,12.05,20.72,19.47,9.12,11.26,16.33,23.68,22.35,36.8,9.32,20.31,11.18,41.42,6.38,63.1-5.72,25.81-18.2,48.25-35.42,68.19-13.44,15.56-28.78,29.06-45.59,40.95-20.52,14.54-42.12,27.33-64.07,39.58-13.65,7.61-27.58,14.53-42.37,19.69-16.56,5.78-31.38,14.66-45.03,25.48-9.77,7.74-18.41,16.61-24.96,27.31-4.71,7.71-8.09,15.96-9.1,24.9-1.6,13.94.17,27.47,5.96,40.42,4.37,9.75,9.6,18.98,15.87,27.63,7.44,10.28,15.63,19.95,24.13,29.37,8.45,9.34,16.73,18.81,24.39,28.78,1.98,2.56,3.91,5.16,5.78,7.79.69.96,1.37,1.92,2.04,2.9h-17.37c-.75-.97-1.49-1.94-2.26-2.9-2.09-2.65-4.25-5.24-6.44-7.79-6.57-7.65-13.55-14.95-20.62-22.17-10.48-10.71-21.11-21.27-30.75-32.77-19.55-23.35-34.2-49.03-38.87-79.53-.39-2.59-.96-5.08-2.23-7.37-.73-1.3-1.72-2.28-3.68-2.24-2.97,1.6-5.12,4.15-6.4,7.49-1.96,5.13-3.27,10.35-3.51,15.89-.51,12.09,2.74,23.31,7.53,34.18,7,15.86,16.16,30.5,26.92,44.07,8.58,10.83,17.76,21.19,26.59,31.82,2.92,3.51,5.78,7.07,8.63,10.64,1.82,2.28,3.64,4.56,5.47,6.84.25.31.5.63.73.96.57.84.96,1.74.66,2.9h-34.74c-1.35-.96-2.7-1.93-4.05-2.9-1.68-1.22-3.39-2.41-5.12-3.55-2.12-1.39-4.23-2.8-6.31-4.24-21.54-14.79-41.09-31.85-58.46-51.42-10.17-11.44-19.5-23.5-27.58-36.48-10.13-16.26-17.73-33.5-20.7-52.56-3.17-20.43-.91-40.06,8.26-58.73,6.81-13.88,16.52-25.51,28.14-35.71,18.53-16.27,39.61-27.68,63.58-33.95,13.41-3.5,26.87-6.85,40.02-11.3,29.83-10.12,59.33-21.1,88.7-32.43,11.33-4.37,22.42-9.29,33.13-15.02,6.63-3.54,13.09-7.37,18.95-12.1,6.56-5.29,12.41-11.21,16.77-18.47,6.91-11.51,7.5-23.31,1.54-35.33-1.66-3.33-3.64-6.54-5.76-9.61-4.92-7.11-10.6-13.64-16.48-19.99-7.44-8.04-14.96-16.02-22.14-24.29-10.96-12.61-22.08-25.08-33.94-36.89-7.96-7.93-15.62-16.18-23.17-24.5-6.79-7.48-12.77-15.58-17.12-24.78-3.52-7.42-5.01-15.17-5-23.37,0-8.3,2.66-15.82,6.26-23.06,9.88-19.82,20.5-39.25,32.13-58.12,11.04-17.92,23.86-34.58,36.26-51.55,19.57-26.75,37.5-54.53,53.43-83.57,17.3-31.52,33.24-63.73,48.9-96.06,9.67-19.95,17.44-40.64,22.59-62.22,4.67-19.55,7.76-39.35,9.67-59.35.65-6.85,1.28-13.69,2.02-20.53.87-7.98,1.88-15.92,2.78-23.89.81-7.12,1.29-14.29,2.36-21.37,1.93-12.74,4.1-25.45,6.35-38.14,4.46-25.19,11-49.84,19.65-73.91,4.86-13.52,10.61-26.69,18.39-38.89,6.69-10.51,14.32-20.17,24.49-27.65,13.83-10.17,28.88-12.47,45.14-7.08,8.84,2.93,16.88,7.46,24.64,12.53,14.04,9.19,26.82,19.99,39.68,30.69,11.97,9.97,23.82,20.08,36.4,29.3.08.06.17.12.24.17Z"/>
      <path class="st1" d="M1915.22,629.53v19.01c-11.41-5.98-22.53-12.49-33.76-18.8-11.83-6.64-23.69-13.25-36.29-18.4-14.02-5.72-28.39-9.75-43.75-9.18-15.53.57-29.37,5.66-41.58,15.21-11.32,8.84-19.69,20.15-27.3,32.09-8.83,13.9-15.85,28.72-21.85,43.97-12.44,31.58-21.61,64.12-28.51,97.33-3.79,18.24-6.69,36.64-9.67,55.02-1.69,10.47-2.68,21.04-4.08,31.55-4.59,34.42-10.21,68.61-22.29,101.43-6.27,17.04-14.22,33.29-22.97,49.16-12.22,22.18-24.92,44.08-38.69,65.35-16.63,25.69-35.26,49.82-56.7,71.77-17.12,17.54-34.37,34.96-51.3,52.69-17.73,18.55-35.3,37.26-52.62,56.19-13.51,14.76-24.89,31.01-31.93,49.9-2.4,6.45-4.4,13.05-6.42,19.64-1.35,4.4-2.66,8.8-4.82,12.89-4.81,9.1-12.32,14.15-22.7,15.1-14.53,1.33-28.18-1.84-41.26-7.86-13.35-6.15-24.71-14.94-33.78-26.44-6.66-8.46-11.57-17.89-13.9-28.45-1.85-8.4-3.47-16.86-5.05-25.31-2.16-11.56-4.27-23.13-6.25-34.73-2.18-12.72-4.31-25.45-6.23-38.21-1.71-11.35-3.19-22.74-4.6-34.12-.82-6.55-1.37-13.14-1.93-19.72-.78-9.16-1.27-18.34-2.22-27.48-1.55-14.83-3.07-29.69-6.78-44.21-2.06-8.08-4.39-16.09-8.52-23.43-2.54-4.52-5.27-8.89-9.85-11.82-5.44-3.47-10.06-3.4-15.07.74-4.1,3.37-6.76,7.84-9.12,12.47-4.19,8.24-7.07,16.98-9.33,25.89-3.24,12.8-5.72,25.75-7.42,38.84-1.4,10.8-3.15,21.56-4.48,32.35-.74,5.98-1,11.98-1.81,17.97-1.18,8.8-1.55,17.71-2.38,26.56-.86,9.12-1.88,18.24-2.81,27.35-.06.57-.1,1.15-.14,1.72-.76,11.17-1.42,22.33-2.31,33.48-.82,10.29-1.88,20.55-2.82,30.82-.12,1.43-.04,2.88-.14,4.31-.76,11.73-1.19,23.5-2.41,35.2-1.16,11.12-2.6,22.22-2.91,33.39-.38,13.78-.19,27.54,1.02,41.32.82,9.42.33,18.96.9,28.43.88,14.31,1.3,28.67,3.4,42.89.37,2.55,1,5.07,1.56,7.59,3.03,13.61,11.22,22.98,23.85,28.81,9,4.15,18.62,6.15,28.19,8.33,9.02,2.04,18.11,3.74,26.86,6.81,4.38,1.53,8.64,3.22,12.65,5.59,10.28,6.09,14.3,14.75,7.64,27-3.19,5.87-7.24,11.08-11.82,15.89-12.11,12.72-26.46,22.22-42.63,29.07-17.1,7.25-35.02,11.84-53.18,15.42-16.73,3.3-33.6,5.75-50.58,7.43-16.39,1.62-32.75,3.48-49.13,5.2-11.21,1.17-22.44,2.16-33.64,3.44-11.77,1.34-23.5,2.93-35.25,4.41-10.6,1.34-21.22,2.64-31.82,4.01-11.46,1.47-22.89,3.27-34.38,4.44-12.94,1.33-25.88,2.83-38.94,2.77-37.63-.17-75.27-.22-112.9-.41-11.87-.06-23.65-1.53-35.43-2.94-10.61-1.26-21.24-2.46-31.84-3.9-33.53-4.57-66.77-10.48-99.21-20.43-20.18-6.19-40.01-13.36-60.07-19.87-10.72-3.47-21.48-6.75-32.63-8.69-3.74-.65-7.45-1.01-11.21-.94-14.31.27-22.43,7.94-24.21,21.96-.61,4.83-.54,9.76-.47,14.63.2,15.07,3.79,29.57,8.11,43.89,8.45,27.93,21.03,54.03,35.81,79.16,11.24,19.09,22.69,38.07,33.46,57.42,13.64,24.5,25.76,49.78,36.57,75.64.61,1.47,1.22,2.93,1.82,4.4.47,1.15.97,2.28,1.49,3.4.44.97.89,1.93,1.33,2.9h-15.63c-.44-.97-.89-1.93-1.33-2.9-1.2-2.6-2.38-5.19-3.56-7.79-3.86-8.46-7.7-16.93-11.77-25.29-12.73-26.13-27.34-51.25-42.91-75.81-13.87-21.88-27.14-44.09-38.49-67.4-13.91-28.52-24.81-58.1-31.54-89.1-3.29-15.15-5.51-30.49-5.62-46.05-.05-7.51,1.3-14.84,3.21-22.07,1.11-4.21,2.96-8.11,5.29-11.76,7.42-11.64,18.39-16.23,31.86-15,10.42.94,20.43,3.9,30.07,7.91,15.73,6.55,31.42,13.21,47.13,19.82,26.92,11.33,54.36,21.12,82.96,27.44,18.65,4.11,37.44,6.98,56.52,8.42,17.94,1.35,35.86,1.53,53.78.88,12.98-.47,26.01-.88,38.93-2.63,9.74-1.32,19.49-2.6,29.28-3.44,15.63-1.34,31.2-.99,46.49,3.21,15.6,4.28,31.12,8.85,46.95,12.27,7.36,1.59,14.78,2.52,22.26,3.34,19.93,2.19,39.91,1.91,59.83.98,11.52-.53,23.12-.71,34.59-2.47,6.84-1.06,13.81-1.31,20.69-2.16,24.98-3.09,49.71-7.43,73.62-15.53,10.7-3.63,21.12-7.85,30.68-13.96,4.14-2.64,8.12-5.49,11.54-9.07,2.02-2.1,3.67-4.41,5.07-6.95,2.84-5.21,2.04-9.97-1.66-14.37-3.72-4.45-8.23-8.08-12.7-11.73-3.82-3.12-7.3-6.51-10.28-10.44-6.45-8.54-9.72-18.09-10.08-28.79-.35-10.41,1.52-20.6,2.54-30.87.6-5.98,1.91-11.89,2.54-17.86.95-9.13,1.37-18.31,2.41-27.43,1.63-14.3.96-28.69,1.94-42.98.63-9.11.68-18.32,2.48-27.39,1.05-5.31,1.13-10.81,1.81-16.22,1.21-9.67,1.61-19.43,2.42-29.14.88-10.28,1.87-20.54,2.76-30.81.22-2.58.15-5.17.37-7.74,1.1-12.56,1.64-25.17,3.2-37.69.32-2.56.1-5.17.34-7.74,1.16-12.27,1.4-24.61,3.14-36.83.32-2.26.16-4.59.3-6.88.67-10.3,1.12-20.62,2.13-30.9,1.32-13.41,2.53-26.81,3.53-40.26.77-10.56,1.96-21.12,3.34-31.62,3.73-28.43,7.79-56.8,15.37-84.54,2.35-8.6,5.08-17.07,9.2-25.02,1.58-3.05,3.39-6.04,5.49-8.75,5.61-7.27,13.14-8.89,21.74-6.55,3.63.99,6.97,2.7,10.21,4.67,7.72,4.72,14.32,10.73,20.28,17.43,19.63,22.09,31.89,47.73,36.93,76.7,1.32,7.61,2.21,15.33,2.38,23.12.36,15.81.22,31.62-.61,47.4-.63,12.04-1.85,24.04-2.62,36.07-.41,6.3-.56,12.63-.59,18.95-.05,13.22,0,26.44.1,39.65.11,12.07,1.69,24.03,2.92,36.01.96,9.43,2.18,18.81,3.94,28.12,1.83,9.68,4.76,18.91,11.12,26.78,3.32,4.1,7.2,7.51,11.78,10.04,13.08,7.23,24.66,6.3,36.34-2.75,5.49-4.26,10.07-9.47,14.1-15.14,4.99-7.05,10.08-14.04,15.09-21.06,9.73-13.63,20.85-26.12,32.36-38.25,23.43-24.68,45.56-50.49,67.23-76.7,17.81-21.54,35.81-42.91,54.45-63.76,15.75-17.61,31.64-35.13,46.8-53.24,18.35-21.92,34.37-45.44,46.61-71.38,8.13-17.24,13.88-35.25,18.47-53.64,4.59-18.36,7.99-36.97,10.78-55.7,6.05-40.54,12.97-80.93,24.06-120.48,9.15-32.67,20.07-64.68,36.04-94.82,6.62-12.49,14.11-24.41,23.26-35.24,12.06-14.29,26.89-24.44,45.48-28.16,7.55-1.51,15.23-2.31,23.19-1.71,19.7,1.48,37.77,7.98,55.47,15.94,10.54,4.73,20.92,9.79,31.31,14.83,5.41,2.63,10.83,5.22,16.3,7.72Z"/>
      <path class="st1" d="M1915.22,594.81v15.38c-4.26-1.58-8.48-3.22-12.71-4.87-15.86-6.21-31.55-12.84-47.86-17.89-12.71-3.93-25.58-7.13-38.95-7.84-11.93-.63-23.69.24-35.1,4.06-17.25,5.78-31.07,16.32-42.44,30.21-12.85,15.7-22.87,33.13-31.45,51.4-17.27,36.79-29.7,75.25-39.8,114.51-6.5,25.27-12.08,50.75-17.67,76.24-3.07,14-6.66,27.88-12.01,41.27-4.43,11.06-10.14,21.31-18.43,29.96-13.07,13.64-22.97,29.47-32.7,45.48-19.87,32.7-39.62,65.48-61.07,97.21-21.92,32.44-44.7,64.3-69.07,95-19.55,24.63-40.63,47.9-64.31,68.75-6.28,5.54-12.16,11.5-18.93,16.47-4.2,3.07-8.5,5.85-13.48,7.69-8.95,3.31-15.09-1.09-18.46-6.85-2.94-5.01-4.73-10.53-5.58-16.22-2.26-15.05-4.13-30.16-2.52-45.44.15-1.43.12-2.87.15-4.31.31-17.24,1.74-34.39,3.43-51.54,1.27-12.86,1.49-25.81,2.72-38.66,1.73-18.07,1.82-36.18.96-54.24-1.13-23.87-4.68-47.4-13.57-69.84-4.78-12.08-10.72-23.5-19.05-33.64-7.67-9.35-16.95-16.55-28.11-21.08-20.86-8.48-41.79-16.82-63.25-23.79-8.57-2.78-17.43-4.18-26.35-5.03-7.57-.72-15.04.34-22.2,2.89-10.77,3.83-15.62,11.24-14.68,22.54.31,3.7,1.06,7.41,2.08,10.98,3.86,13.58,6.1,27.44,7.7,41.41.23,1.99.28,4.02.28,6.03,0,14.65.5,29.33-.23,43.95-.58,11.75-.79,23.54-1.79,35.25-.76,8.88-.55,17.82-1.63,26.62-1.6,12.85-.56,25.83-2.63,38.62-.46,2.81-.13,5.74-.28,8.61-.71,13.75-1.11,27.53-2.34,41.24-.76,8.59-.56,17.26-1.75,25.74-1.42,10.26-.5,20.67-2.6,30.84-.29,1.39-.1,2.87-.2,4.3-.75,12.02-1.21,24.07-2.36,36.06-1.26,13.12-2.4,26.25-3.44,39.39-1.09,13.69-2.9,27.33-4.54,40.98-1.84,15.36-3.7,30.72-5.85,46.04-1.54,11.06-2.4,22.21-4.72,33.18-2.74,12.95-6.18,25.68-11.74,37.73-4.34,9.39-8.69,18.8-13.45,27.97-7.62,14.64-13.14,29.96-16.73,46.02-.94,4.2-2.14,8.34-3.36,12.47-3.4,11.44-10.87,19.41-21.57,24.54-7.35,3.52-15.1,5.84-23.07,7.34-13.74,2.6-27.67,2.82-41.52,1.58-16.79-1.51-32.98-5.75-48.34-12.86-14.42-6.67-28.84-13.31-43.32-19.87-14.11-6.39-28.94-9.67-44.44-10.43-19.27-.94-38.09,1.4-56.66,6.32-18.43,4.89-36.98,9.33-55.8,12.47-11.67,1.95-23.39,3.68-35.26,4.42-8.66.53-17.3,1.3-25.99,1.13-23.22-.46-46.06-3.54-68.5-9.58-21.57-5.8-42.25-13.88-62.23-23.74-16.06-7.92-31.9-16.27-47.87-24.36-10.05-5.09-20.09-10.23-30.91-13.55-4.69-1.44-9.42-2.97-14.24-3.71-14.63-2.25-26.83,2.06-35.96,13.98-7.17,9.37-10.82,20.17-13.18,31.52-3.01,14.51-2.19,29.17-1.74,43.8.34,10.91,2.05,21.72,3.92,32.44,3.87,22.06,9.46,43.71,16.73,64.93,10,29.15,22.66,57.1,37.58,84.1,11.14,20.16,23.5,39.56,35.91,58.96,14.74,23.05,28.41,46.7,40.21,71.37,1.32,2.75,2.73,5.46,4.05,8.23,1.22,2.53,2.35,5.12,3.23,7.79.32.96.61,1.91.86,2.9h-13.9c-.48-.97-.96-1.93-1.42-2.9-1.29-2.6-2.55-5.2-3.83-7.79-3.44-7.02-6.88-14.03-10.45-20.98-9.08-17.68-19.48-34.58-30.21-51.31-15.53-24.23-30.74-48.65-44.1-74.17-19.66-37.59-35.21-76.72-45.42-117.9-4.42-17.84-7.74-35.89-10.08-54.09-2.53-19.7-3.14-39.54-1.81-59.35.92-13.75,3.53-27.31,8.44-40.3,2.66-7.02,6.03-13.67,10.4-19.81,2.35-3.3,5.12-6.23,8.16-8.91,6.31-5.52,13.6-8.49,22.1-8.69,8.87-.22,17.21,1.75,25.27,5.19,7.45,3.18,14.68,6.81,21.64,10.93,14.67,8.67,29.2,17.55,43.95,26.08,23.55,13.62,48.05,25.16,74.24,33.01,26.13,7.84,52.77,10.19,79.8,7.85,17.03-1.47,33.55-5.8,49.84-10.99,19.29-6.14,38.02-13.74,56.77-21.33,13.45-5.44,27.27-9.59,41.66-11.56,11.21-1.53,22.58-1.6,33.78.03,26.77,3.91,52.37,11.8,76.99,22.96,7.89,3.58,15.99,6.68,24.08,9.77,7.31,2.79,14.89,4.51,22.74,5.33,8.03.83,15.51-.47,22.77-3.73,4.53-2.03,8.6-4.76,12.39-7.88,3.79-3.11,7.52-6.3,11.1-9.66,8.86-8.29,18.33-15.83,28.05-23.07,6.24-4.66,12.46-9.4,18.3-14.54,17.7-15.58,28.52-35.1,33.28-58.09,4.35-21.06,8.31-42.18,11.66-63.42,1.02-6.5,1.49-13.1,2.21-19.65,1.03-9.4,2.05-18.8,3.06-28.19.1-.85.12-1.72.18-2.58.76-10.01,1.35-20.04,2.31-30.02,1.6-16.56,2.5-33.17,3.63-49.76.68-10.03.77-20.09,1.72-30.07,1.16-12.32.84-24.68,1.67-36.98,2.27-33.87,1.56-67.76,1.62-101.65.03-15.82-1.23-31.54-3.8-47.15-1.11-6.79-2.87-13.45-5.12-19.99-3.98-11.6-11.4-20.53-21.27-27.6-3.75-2.68-7.71-5.1-11.4-7.87-3.21-2.41-6.38-4.97-9.24-7.79-11.53-11.35-14.71-29.58-2.53-45.47,6.05-7.88,13.76-13.91,22.53-18.62,11.56-6.19,23.92-10.15,36.76-12.59,9.94-1.88,19.92-3.53,29.92-4.97,8.08-1.16,15.88-3.11,23.32-6.43,8.66-3.85,17.67-5.51,27.07-3.85,6.26,1.1,12.41,2.77,18.36,5.07,12.23,4.74,23.29,11.52,33.66,19.41,21.2,16.11,37.96,36.02,51.44,58.85,15.71,26.59,25.36,55.25,30.78,85.45,2.48,13.85,4.19,27.79,5.4,41.81,1.81,20.9,2.74,41.83,3.33,62.79.33,11.77.88,23.55,1.86,35.27.69,8.27,1.87,16.54,4.75,24.45,1.61,4.42,3.74,8.4,8.42,11.14,6.44,1.98,12.68.24,18.65-3.16,8.34-4.76,15.73-10.76,22.52-17.46,15.44-15.21,29.33-31.77,42.22-49.15,28.34-38.21,54.11-78.06,76.72-119.9,13.57-25.12,24.49-51.33,33.27-78.45,5.65-17.48,11.4-34.93,17.18-52.37,2.72-8.19,6.17-16.08,10.01-23.81,4.03-8.1,9.22-15.34,15.99-21.29,8.42-7.4,14.4-16.36,19.11-26.37,6.11-13.04,10.92-26.56,15.88-40.04,11.7-31.83,24.19-63.33,39.81-93.51,7.54-14.59,15.97-28.64,26.11-41.62,6.57-8.42,13.6-16.42,22.17-22.95,12.86-9.81,27.16-16.04,43.27-18.6,16.91-2.69,33.39-.5,49.84,2.95,18.14,3.8,35.62,9.8,53.18,15.55,5.78,1.89,11.55,3.74,17.37,5.48Z"/>
      <path class="st1" d="M1915.22,788.38v32.07c-13.47-9.35-26.37-19.46-38.88-30.13-12.94-11.04-25.61-22.42-39.44-32.41-5.86-4.23-12.01-7.98-18.59-11.04-3.95-1.84-8.06-3.1-12.31-4.08-7.83-1.82-14.91-.02-21.58,3.94-6.91,4.1-11.6,10.31-15.63,17.03-4.16,6.93-7.38,14.3-9.84,21.99-4.02,12.6-6.93,25.44-9.02,38.51-3.04,19.02-4.43,38.15-5.42,57.38-.67,12.91-.89,25.83-1.67,38.72-1.07,17.46-2.02,34.96-5.13,52.22-3.47,19.24-8.65,38.04-15.63,56.34-8.07,21.2-16.3,42.34-24.22,63.61-7.11,19.12-13.32,38.54-18,58.41-2.62,11.19-4.66,22.48-4.39,34.07.24,10.73,3.52,20.28,10.31,28.63,1.63,2.01,3.12,4.17,4.94,5.99,11.78,11.76,18.66,26.12,22.83,41.94,3.65,13.89,6.64,27.91,9.04,42.06,2.3,13.58,4.87,27.11,7.2,40.68,2.23,13,4.26,26.04,6.44,39.05,2.55,15.27,4.7,30.63,7.86,45.77,4.86,23.27,6.04,46.71,4.04,70.25-1.93,22.75-8.38,44.46-18.09,65.18-10.1,21.55-23.77,40.69-39.85,58.2-15.26,16.62-32.32,31.29-50.41,44.74-19.92,14.81-40.29,29-61.87,41.39-6.5,3.73-13.31,6.94-19.92,10.48-14.36,7.67-27.47,17-38.9,28.62-4.88,4.96-9.12,10.41-12.77,16.3-10.1,16.3-12.49,33.68-7.18,52.09,2.89,10.01,7.37,19.32,12.98,28.07,3.57,5.57,7.33,11.03,11.21,16.39,8.08,11.16,15.81,22.54,22.96,34.28.64,1.03,1.27,2.06,1.88,3.1.91,1.53,1.72,3.1,2.51,4.7.49.97.96,1.94,1.47,2.9h-13.9c-.58-.97-1.18-1.94-1.78-2.9-1.63-2.63-3.32-5.22-5.05-7.79-6.64-9.86-13.9-19.27-21.36-28.55-9.21-11.45-18.41-22.89-25.64-35.75-4.82-8.58-8.46-17.56-10.62-27.18-3.87-17.15-.8-33.06,8.38-47.9,5.34-8.63,12.02-16.17,19.76-22.76,12.82-10.91,26.79-20.13,42.38-26.61,14.74-6.11,28.65-13.67,42.2-21.99,19.68-12.1,39.09-24.6,57.41-38.7,22.55-17.36,42.7-36.99,58.78-60.54,13.46-19.73,22.83-41.19,27.65-64.54,1.56-7.57,2.82-15.24,2.69-23.04-.03-1.44,0-2.88.06-4.31.91-18.89-2.15-37.2-8.49-54.96-9.35-26.24-18.86-52.42-28.45-78.56-2.68-7.29-6.25-14.21-10.22-20.9-6.36-10.71-14.91-19.02-26.65-23.72-5.38-2.16-11.02-3.44-16.75-4.33-6.57-1.01-13.13-2.06-19.67-3.22-2.55-.46-5.08-1.14-7.55-1.95-12.82-4.19-20.3-13.57-21.4-28.38-.58-7.82.62-15.47,2.48-23.03,3.38-13.7,8.18-26.93,13.91-39.81,7.35-16.55,14.93-33,22.44-49.46,20.41-44.71,40.96-89.35,61.21-134.12,10.93-24.18,18.57-49.46,22.74-75.64,1.99-12.44,3.47-24.99,4.19-37.62.63-11.16,1.81-22.29,2.74-33.43.04-.57.11-1.15.14-1.72.76-18.65,2.77-37.17,5.34-55.65,3.24-23.34,8.11-46.32,15.94-68.6,4.99-14.17,11.49-27.6,21.22-39.26,5.82-6.98,12.68-12.52,21.59-15.27,5.4-1.67,10.76-1.75,16.24-.46,7.98,1.9,15.22,5.42,22.1,9.74,11.79,7.42,22.25,16.49,32.51,25.79,10.68,9.69,21.13,19.63,31.85,29.29,7.94,7.16,16.11,13.99,24.62,20.4Z"/>
      <path class="st1" d="M1915.22,1413.94v53.9c-8.24,5.22-16.25,10.81-24,16.86-13.33,10.39-24.83,22.32-34.01,36.49-8.62,13.3-16.14,27.22-23.49,41.21-11.66,22.17-24.18,43.82-38.58,64.36-11.42,16.28-23.93,31.7-37.16,46.57-17.27,19.39-35.77,37.58-54.26,55.79-11.92,11.73-23.9,23.4-35.13,35.81-6.58,7.29-12.75,14.85-18.14,23.05-6.25,9.51-10.51,19.8-12.4,30.98-1.3,7.69-1.13,15.51-.12,23.19,1.82,13.92,4.09,27.79,6.3,41.65.61,3.79,1.41,7.55,2.16,11.32.3,1.58.61,3.15.89,4.72.17,1.01.25,2.04.31,3.07.04.97.07,1.93.14,2.9h-15.63c.25-.99.27-1.95.16-2.9-.17-1.58-.71-3.1-1.08-4.67-.24-1.04-.49-2.08-.74-3.12-3.95-16.81-7.91-33.64-11.72-50.51-1.01-4.46-1.62-9.04-1.99-13.61-1.27-15.48,3.21-29.5,11.34-42.53,5.2-8.34,11.32-15.99,18.12-23.07,11.2-11.65,22.92-22.75,34.72-33.79,25.71-24.05,50.87-48.64,73.35-75.79,27.78-33.54,50.12-70.24,65.46-111.01,5.76-15.31,11.28-30.72,17.05-46.04,5.12-13.61,12.96-25.56,22.35-36.66,16.19-19.13,35.18-34.82,56.12-48.16Z"/>
      <path class="st1" d="M1915.22,1596.76v42.56c-8.12,3.7-15.62,8.43-22.63,13.92-10.69,8.38-20.99,17.21-30.44,26.94-19.47,20.07-38.82,40.27-58.22,60.42-6.2,6.44-12.54,12.75-18.58,19.34-6.81,7.44-13.51,14.99-19.96,22.74-14.77,17.78-24.51,38.18-30.71,60.27-3.73,13.27-6.33,26.75-7.52,40.54-.33,3.88-.72,7.74-.98,11.61-.18,2.6-.31,5.19-.32,7.79-.02.97,0,1.93.02,2.9h-17.37c0-.97.02-1.93.02-2.9,0-2.6-.02-5.2-.02-7.79,0-3.91.06-7.82.31-11.71,1.49-22.68,4.7-45.04,12.88-66.48,5.5-14.38,13.12-27.5,23.09-39.22,6.15-7.24,12.54-14.3,19.12-21.17,14.55-15.2,29.42-30.11,43.91-45.37,16.68-17.55,32.62-35.77,48.57-53.97,11.59-13.23,23.42-26.23,35.33-39.15,7.17-7.79,15.05-14.86,23.5-21.28Z"/>
      <path class="st1" d="M1915.22,1517.71v35.84c-6.33,5.04-12.31,10.61-17.95,16.7-13.94,15.05-26.54,31.14-39.05,47.32-18.51,23.94-37.43,47.55-58.03,69.75-12.35,13.31-25.39,26-38.19,38.89-9.55,9.62-19.35,18.99-28.77,28.74-8.82,9.12-17.17,18.64-24.71,28.88-12.07,16.43-18.52,34.79-21.1,54.84-2.41,18.8-1.84,37.6-1.55,56.42,0,.7.02,1.39.03,2.09.03,1.91.03,3.81.02,5.71v2.9h-17.37c-.11-.97-.22-1.93-.33-2.9-.3-2.6-.59-5.2-.89-7.79-.53-4.7-1.06-9.39-1.58-14.08-.23-1.99-.38-4-.48-6-.44-9.47-1.1-18.93-1.23-28.4-.33-22.96,4.65-44.37,18.8-63.19,7.1-9.46,14.57-18.61,22.83-27.06,14.5-14.86,29.06-29.66,43.96-44.12,36.77-35.67,69.26-74.82,98.08-117.04,8.28-12.12,17.15-23.83,25.6-35.83,11.66-16.56,25.74-30.3,41.91-41.68Z"/>
      <path class="st1" d="M986.6,215.87c-10.27,23.55-26.07,42.95-45.34,59.94-21.85,19.27-44.73,37.32-67.06,56.03-13.48,11.3-26.93,22.67-40.13,34.3-35.72,31.49-70.13,64.35-103.01,98.77-25.3,26.47-49.35,54.04-72.29,82.57-24.73,30.76-48.44,62.28-71.47,94.31-13.8,19.19-26.18,39.23-36.16,60.7-8.76,18.85-15.07,38.49-20.36,58.49-2.87,10.82-5.7,21.64-8.54,32.46-6.31,24-17.8,45.36-33.22,64.77-13.86,17.43-29.5,33.09-46.68,47.3-20.03,16.56-41.39,31.35-62.57,46.37-43.8,31.06-86.78,63.17-128.39,97.08-9.31,7.59-18.55,15.24-27.74,22.96v-21.8c5.14-4.4,10.27-8.8,15.41-13.21,22.1-18.98,44.23-37.91,66.12-57.12,10.4-9.13,20.25-18.87,29-29.64,8.07-9.94,14.5-20.74,18.23-33.01,1.09-3.58,2.3-7.1,3.42-10.67,4.33-13.7,11.89-25.46,21.88-35.75,8.46-8.71,17.98-16.21,27.65-23.53,7.12-5.4,14.3-10.74,21.37-16.21,19.48-15.04,35.05-33.34,46.22-55.21,6.67-13.06,13.11-26.24,19.55-39.4,13.91-28.47,29.58-55.92,47.81-81.89,15.72-22.39,32.4-44.08,49.58-65.38,17.54-21.74,34.92-43.6,52.63-65.21,17.89-21.84,36.02-43.48,54.97-64.42,18-19.88,36.54-39.24,55.89-57.81,16.84-16.18,33.87-32.16,50.78-48.28,14.61-13.93,29.04-28.06,42.32-43.27,6.64-7.6,12.73-15.61,18.1-24.16,4.92-7.84,8.69-16.21,11.95-24.82,2.85-7.52,5.57-15.09,8.18-22.69,2.68-7.76,5.81-15.28,9.36-22.56h92.53Z"/>
      <path class="st1" d="M1167.12,215.87c-25.3,11.42-50.32,23.48-75,36.26-55.45,28.72-109.41,59.94-160.83,95.34-31.4,21.63-61.53,44.9-90.46,69.72-30.06,25.76-58.41,53.27-85.31,82.22-32.22,34.7-61.29,71.89-87.66,111.16-8.99,13.39-17.74,26.91-25.27,41.18-12.58,23.81-21.48,48.88-26.31,75.34-2.6,14.21-3.04,28.58-1.78,42.92.9,10.29,2.87,20.46,5.85,30.38,2.81,9.35,5.72,18.67,8.62,27.99,2.89,9.33,5.65,18.67,6.78,28.43,1.45,12.41-2.56,22.53-12.12,30.59-4.91,4.15-10.54,7.04-16.32,9.72-8.93,4.12-18.23,7.3-27.58,10.29-23.11,7.38-46.16,14.93-68.67,24.02-35.69,14.4-70.18,31.18-103.52,50.35-47.43,27.29-91.92,58.77-134.42,93.03-16.88,13.6-33.32,27.69-49.47,42.13v-20.4c48.7-41.95,99.66-81,153.91-115.79,39.16-25.11,79.76-47.69,121.48-68.32,12.42-6.14,24.81-12.37,37.1-18.75,9.5-4.93,18.46-10.64,26.33-18.03,9.85-9.24,14.41-20.65,15.06-33.74.37-7.45.21-14.94.07-22.41-.27-14.36-.72-28.71-.22-43.08.83-23.74,5.77-46.64,14.15-68.83,9.48-25.11,21.9-48.77,36.58-71.22,24.74-37.86,51.52-74.25,80.74-108.85,15.07-17.85,30.84-35.03,46.92-51.97,16.88-17.8,34.72-34.61,52.77-51.19,25.28-23.21,51.79-45.02,79-66,44.38-34.21,91.13-65.01,138.35-95.14,24.61-15.72,49.44-31.13,73.72-47.34h67.49Z"/>
      <path class="st1" d="M600.22,266.32c-.62,6.91-2.93,13.43-5.78,19.74-5.12,11.34-11.8,21.73-19.51,31.48-12.55,15.9-27.02,29.96-42.45,43.05-26.92,22.82-56.12,42.47-86.14,60.98-30.49,18.8-61.77,36.2-93.34,53.1-41.76,22.35-83.54,44.67-124.64,68.2-1.57.9-3.14,1.8-4.72,2.71v-38.55c42.15-20.56,84.35-41.01,126.3-61.95,37.48-18.73,74.14-38.95,109.35-61.69,17.72-11.44,34.99-23.5,51.29-36.88,13.63-11.19,26.54-23.12,37.69-36.82,5.46-6.73,10.34-13.83,14.47-21.44,7.2-13.29,8.16-27.36,5.21-41.83-2.25-11.02-6.64-21.06-12.17-30.54h35.4c2.59,6.1,4.81,12.36,6.56,18.84,2.81,10.42,3.42,20.96,2.48,31.61Z"/>
      <path class="st1" d="M811.75,215.87c-5.33,12.96-9.18,26.41-11.76,40.28-1.58,8.46-3.29,16.9-4.87,25.36-4.09,21.94-13.77,41.29-27.49,58.8-6.58,8.39-13.52,16.47-20.74,24.33-22.25,24.22-46.23,46.74-69.47,69.99-17.74,17.74-35.56,35.41-53.13,53.32-27.9,28.44-53.63,58.71-78.09,90.1-34.89,44.77-68.45,90.49-101.22,136.79-9.65,13.62-19.69,26.97-30.27,39.92-15.58,19.07-33.38,35.8-52.7,51.05-24.93,19.68-51.02,37.78-76.94,56.11-15.09,10.67-30.21,21.28-44.29,33.26-6.11,5.2-11.98,10.61-17.13,16.66v-71.71c7.72-4.72,15.4-9.54,23.01-14.46,24.49-15.86,48.11-32.94,71.11-50.86,18.43-14.36,36.58-29.09,53.76-44.94,18.69-17.24,35.6-36.14,51.81-55.67,22.26-26.83,43.44-54.51,64.94-81.94,13.33-17,27.4-33.4,41.99-49.37,24.33-26.62,50.12-51.8,76.35-76.55,22.87-21.58,46.02-42.86,67.98-65.36,15.3-15.68,30.19-31.75,43.28-49.37,15.76-21.19,25.81-44.7,30-70.72,2.19-13.59,4.36-27.19,6.9-40.72,1.55-8.24,3.48-16.35,5.86-24.31h51.11Z"/>
      <path class="st1" d="M513.68,290.37c-4.06,6.66-9.03,12.64-14.48,18.24-12.32,12.64-26.15,23.5-40.56,33.67-21.26,14.99-43.57,28.28-66.43,40.7-52.12,28.3-106.61,51.4-162.04,72.36-2.17.82-4.34,1.63-6.51,2.43v-48.17c13.54-3.03,26.95-6.63,40.25-10.72,34.32-10.57,67.56-23.83,99.6-39.95,19.88-10.01,39.32-20.82,57.36-33.92,8.17-5.95,16.21-12.05,23.42-19.16,4.54-4.48,8.49-9.42,11.87-14.8,9.75-15.5,11.21-31.63,3.72-48.47-3.3-7.41-7.62-14.21-12.69-20.5-1.68-2.1-3.42-4.16-5.19-6.18h62.17c3.8,5.33,7.19,10.94,10.12,16.87,3.87,7.84,6.39,16.06,7.23,24.67,1.15,11.78-1.66,22.82-7.84,32.95Z"/>
      <path class="st1" d="M714.48,215.87c-.68,5.35-1.22,10.73-1.62,16.11-.92,12.6-2.03,25.18-3.36,37.73-2.46,23.36-8.48,45.66-20.51,66.12-8.06,13.69-17.75,26.19-28.22,38.13-14.84,16.93-31.1,32.47-47.78,47.59-16.88,15.3-33.9,30.45-50.89,45.64-11.4,10.19-22.89,20.27-34.22,30.53-30.57,27.69-61.08,55.45-90.57,84.28-19.59,19.16-38.42,39.04-57.61,58.6-29.71,30.26-61.04,58.79-94.03,85.54-20.09,16.3-40.76,31.75-62.03,46.3v-57.06c7.03-5.16,13.97-10.45,20.85-15.86,22.24-17.49,43.53-36.07,64.38-55.17,30.85-28.26,62.73-55.31,95.87-80.92,38.13-29.46,75.91-59.38,113-90.14,22.66-18.79,45.23-37.68,67.04-57.41,18.61-16.85,36.76-34.19,52.92-53.45,14.16-16.86,26.31-34.95,33.99-55.72,4.3-11.64,6.91-23.63,8.67-35.89,1.51-10.57,1.28-21.2,2.04-31.78.56-7.73.8-15.45.92-23.18h31.15Z"/>
      <path class="st1" d="M653.75,262.79c-1.62,17.59-6.85,34.26-15,50-9.61,18.56-22.44,34.82-36.65,50.03-17.34,18.58-36.4,35.35-55.96,51.58-45.36,37.66-93.67,71.27-143.33,103.04-25.05,16.03-49.87,32.39-74.31,49.34-27.06,18.76-53.33,38.55-79.26,58.78-8.54,6.66-17.05,13.34-25.59,19.99v-49.52c26.18-17.84,52.54-35.39,79.59-51.91,26.36-16.1,52.91-31.89,79.45-47.71,28.77-17.15,57.5-34.36,85.4-52.87,27.93-18.53,54.85-38.39,80.28-60.2,18-15.42,34.98-31.84,49.56-50.57,10.32-13.23,19-27.39,25.09-43.08,6.81-17.56,8.74-35.45,5.49-54.08-1.17-6.69-2.73-13.25-4.56-19.74h27.99c2.61,15.54,3.26,31.25,1.81,46.91Z"/>
      <path class="st1" d="M1912.77,1716.65c.83.53,1.65,1.09,2.45,1.66v100.03c-.54-.61-1.05-1.25-1.54-1.9-3.98-5.29-7.8-10.7-11.62-16.11-3.16-4.46-6.11-9.06-9.37-13.46-2.05-2.77-4.38-5.35-6.75-7.85-9.56-10.12-21.24-12.08-34.2-8.33-9.02,2.6-16.92,7.44-24.31,13.02-26.78,20.23-45.57,46.19-56.29,77.87-3.7,10.95-6.38,22.13-8.15,33.51-.3,1.94-.58,3.89-.83,5.84-.09.66-.17,1.32-.3,1.96-.22,1.03-.55,2.02-1.24,2.9h-15.63c.11-.97.23-1.93.35-2.9.31-2.6.64-5.2,1-7.79,1.93-14.34,4.48-28.56,8.88-42.44,7.47-23.6,19.14-44.85,35.15-63.8,14.36-16.99,29.69-33,46.57-47.52,7.65-6.6,15.48-12.98,24.02-18.43,7.33-4.68,15.04-8.46,23.57-10.67,10.17-2.64,19.54-1.08,28.25,4.41Z"/>
      <path class="st1" d="M352.92,285.89c-5.39,8.31-12.37,15.15-20.16,21.21-13.98,10.88-29.6,18.98-45.81,26-20.52,8.9-41.72,15.67-63.31,21.2v-57.68c6.11-4.12,11.86-8.7,16.78-14.24,12.1-13.64,17.7-29.24,14.81-47.64-1.01-6.43-2.48-12.7-4.34-18.87h91.54c2.59,3.6,5.07,7.27,7.43,11.02,3.22,5.13,5.92,10.49,7.99,16.2,5.45,15.09,3.79,29.34-4.93,42.8Z"/>
      <path class="st1" d="M654.09,1905.8c.11-2.57.39-5.14.28-7.7-.27-6.63.37-13.2,1.46-19.71,2.01-12.07,8.59-20.43,20.59-24.22,7.53-2.38,15.34-2.66,23.12-3.15,6.34-.4,12.69-.26,19.02-1.26,14.44-2.26,28.01-7.05,40.86-13.74,11-5.73,21.78-11.9,32.53-18.09,26.55-15.27,53.81-29.07,82.38-40.25,15.07-5.9,30.46-10.78,46.29-14.21,14.81-3.2,29.86-4.32,44.84-2.34,21.03,2.79,37.42,13,47.22,32.3,1.69,3.33,3,6.84,4.65,10.19,2.66,5.41,5.19,10.91,8.24,16.1,10.66,18.1,26.72,29.82,45.96,37.68,14.74,6.02,30.09,10.14,45.54,13.78,23.31,5.48,46.73,10.48,70.1,15.72,21.68,4.87,43.35,9.77,64.43,16.88,1.31.44,2.92.38,3.54,2.02-38.79,0-77.59,0-116.38,0-1.13-1.81-3.02-1.33-4.66-1.47-9.78-.82-19.58-1.46-29.35-2.41-14.94-1.44-29.86-3.07-44.78-4.63-15.82-1.65-31.48-4.26-46.69-8.93-14.46-4.44-27.8-11.06-39.56-20.79-7.85-6.5-14.09-14.37-20.65-22-4.88-5.67-9.18-11.81-14.54-17.08-6.3-6.2-13.65-10.46-22.26-12.72-9.14-2.4-18.4-2.09-27.55-.81-13.21,1.84-25.79,6.03-38.07,11.21-22.18,9.36-42.85,21.35-62.35,35.31-19.45,13.92-38.65,28.19-57.94,42.34-.65.48-1.04,1.3-1.55,1.96-24.9,0-49.8,0-74.69,0Z"/>
      <path class="st1" d="M1927.38,1905.8h-45.16c-.96-.97-1.91-1.93-2.87-2.9-2.66-2.66-5.35-5.27-8.12-7.79-4.09-3.73-8.35-7.28-12.91-10.48-4.03-2.84-8.36-5.03-13.12-6.49-9.1-2.79-17.13-.44-24.44,4.95-4.19,3.1-7.72,6.94-10.38,11.46-.11.19-.22.37-.32.56-1.51,2.57-2.94,5.19-4.39,7.79-.54.97-1.08,1.93-1.62,2.9h-20.85c-.21-.99-.24-1.96-.16-2.9.22-2.46,1.2-4.79,1.79-7.18.05-.21.1-.41.16-.61,3.06-12.08,7.54-23.62,13.9-34.4,5.31-9,11.81-17.02,20.62-22.91,2.62-1.75,5.39-3.36,8.27-4.66,10.86-4.91,21.32-3.99,31.3,2.51,6.1,3.98,11.25,9,15.81,14.61,6.53,8.04,12.92,16.18,19.39,24.27,5.92,7.41,12.45,14.26,19.52,20.58.67.61,1.34,1.21,2.02,1.79,2.44,2.13,5.05,4.07,7.68,6,1.3.96,2.61,1.91,3.9,2.9Z"/>
      <path class="st1" d="M813.91,1905.8c5.91-4.98,13.18-7.08,20.48-8.37,9.77-1.73,19.64-1.32,28.91,2.84,3.85,1.73,8.39,2.11,11.41,5.53-20.27,0-40.53,0-60.8,0Z"/>
    </g>
  </g>
</svg>